<?xml version="1.0" encoding="utf-8"?><!-- Uploaded to: SVG Repo, www.svgrepo.com, Generator: SVG Repo Mixer Tools -->
<svg width="800px" height="800px" viewBox="0 0 24 24" fill="none" xmlns="http://www.w3.org/2000/svg">
<path fill-rule="evenodd" clip-rule="evenodd" d="M9.99999 4.00024C9.99999 5.30646 9.16518 6.4177 7.99999 6.82954V7.52646L13.1332 11.7263C13.5607 12.076 13.6237 12.706 13.274 13.1335C12.9242 13.5609 12.2942 13.6239 11.8668 13.2742L7.99999 10.1106V13.8189L10.9363 21.6491C11.1302 22.1662 10.8682 22.7427 10.3511 22.9366C9.83399 23.1305 9.25758 22.8685 9.06366 22.3514L6.99999 16.8482L4.93632 22.3514C4.7424 22.8685 4.16598 23.1305 3.64886 22.9366C3.13174 22.7427 2.86974 22.1662 3.06366 21.6491L5.99999 13.8189V9.61828L4.22293 10.5068L4.94867 12.684C5.12332 13.208 4.84016 13.7743 4.31622 13.9489C3.79227 14.1236 3.22595 13.8404 3.0513 13.3165L2.32557 11.1393C2.01083 10.195 2.43828 9.16306 3.32851 8.71795L5.99999 7.38221V6.82954C4.83479 6.4177 3.99999 5.30646 3.99999 4.00024C3.99999 2.34339 5.34313 1.00024 6.99999 1.00024C8.65684 1.00024 9.99999 2.34339 9.99999 4.00024ZM5.89265 4.00024C5.89265 4.61181 6.38842 5.10758 6.99999 5.10758C7.61155 5.10758 8.10732 4.61181 8.10732 4.00024C8.10732 3.38868 7.61155 2.89291 6.99999 2.89291C6.38842 2.89291 5.89265 3.38868 5.89265 4.00024Z" fill="#0F0F0F"/>
<path d="M15.7592 14.3495C15.3998 13.9301 14.7685 13.8816 14.3492 14.241C13.9299 14.6004 13.8813 15.2317 14.2407 15.651L20.2407 22.651C20.6002 23.0704 21.2315 23.1189 21.6508 22.7595C22.0701 22.4001 22.1187 21.7688 21.7592 21.3495L15.7592 14.3495Z" fill="#0F0F0F"/>
</svg>