<?xml version="1.0" encoding="utf-8"?><!-- Uploaded to: SVG Repo, www.svgrepo.com, Generator: SVG Repo Mixer Tools -->
<svg width="800px" height="800px" viewBox="0 0 24 24" fill="none" xmlns="http://www.w3.org/2000/svg">
<path d="M22 8C21.4477 8 21 7.55228 21 7V4.41421L13.4142 12L21 19.5858V17C21 16.4477 21.4477 16 22 16C22.5523 16 23 16.4477 23 17V21C23 22.1046 22.1046 23 21 23H17C16.4477 23 16 22.5523 16 22C16 21.4477 16.4477 21 17 21H19.5858L12 13.4142L4.41421 21H7C7.55228 21 8 21.4477 8 22C8 22.5523 7.55228 23 7 23H3C1.89543 23 1 22.1046 1 21V17C1 16.4477 1.44772 16 2 16C2.55228 16 3 16.4477 3 17V19.5858L10.5858 12L3 4.41422V7C3 7.55228 2.55228 8 2 8C1.44772 8 1 7.55228 1 7V3C1 1.89543 1.89543 1 3 1H7C7.55228 1 8 1.44772 8 2C8 2.55228 7.55228 3 7 3H4.41421L12 10.5858L19.5858 3H17C16.4477 3 16 2.55228 16 2C16 1.44772 16.4477 1 17 1H21C22.1046 1 23 1.89543 23 3V7C23 7.55228 22.5523 8 22 8Z" fill="#0F0F0F"/>
</svg>