<?xml version="1.0" encoding="utf-8"?><!-- Uploaded to: SVG Repo, www.svgrepo.com, Generator: SVG Repo Mixer Tools -->
<svg width="800px" height="800px" viewBox="0 0 24 24" fill="none" xmlns="http://www.w3.org/2000/svg">
<path d="M16.2426 5.65675C16.6331 5.26623 16.6331 4.63306 16.2426 4.24254L13.4142 1.4142C12.6332 0.633154 11.3668 0.63306 10.5857 1.41411L7.75737 4.24263C7.36685 4.63315 7.36685 5.26632 7.75737 5.65684C8.1479 6.04737 8.78106 6.04737 9.17159 5.65684L11 3.82843V17.9997L11 18.0014V20.1713L9.17158 18.3429C8.78106 17.9524 8.14789 17.9524 7.75737 18.3429C7.36685 18.7334 7.36685 19.3666 7.75737 19.7571L10.5858 22.5855C11.3668 23.3666 12.6332 23.3667 13.4142 22.5857L16.2426 19.7572C16.6332 19.3667 16.6332 18.7336 16.2426 18.343C15.8521 17.9525 15.2189 17.9525 14.8284 18.343L13 20.1714V18.0007V3.82836L14.8284 5.65675C15.2189 6.04727 15.8521 6.04727 16.2426 5.65675Z" fill="#0F0F0F"/>
</svg>