<?xml version="1.0" encoding="utf-8"?><!-- Uploaded to: SVG Repo, www.svgrepo.com, Generator: SVG Repo Mixer Tools -->
<svg width="800px" height="800px" viewBox="0 0 24 24" fill="none" xmlns="http://www.w3.org/2000/svg">
<path d="M6.58571 7.75725C6.19518 7.36672 5.56202 7.36672 5.17149 7.75725C4.78097 8.14777 4.78097 8.78094 5.17149 9.17146L6.99988 10.9998H1.82855C1.27627 10.9998 0.828552 11.4476 0.828552 11.9998C0.828552 12.5521 1.27627 12.9998 1.82855 12.9998L7.00012 12.9998L5.17165 14.8283C4.78112 15.2189 4.78112 15.852 5.17165 16.2425C5.56217 16.6331 6.19533 16.6331 6.58586 16.2425L9.41429 13.4141C10.1953 12.6331 10.1952 11.3667 9.41413 10.5857L6.58571 7.75725Z" fill="#0F0F0F"/>
<path d="M17.4142 16.2428C17.8048 16.6333 18.4379 16.6333 18.8284 16.2428C19.219 15.8523 19.219 15.2191 18.8284 14.8286L17 13.0001H22.1716C22.7239 13.0001 23.1716 12.5524 23.1716 12.0001C23.1716 11.4478 22.7239 11.0001 22.1716 11.0001H17.0001L18.8285 9.17171C19.2191 8.78118 19.2191 8.14802 18.8285 7.75749C18.438 7.36697 17.8048 7.36697 17.4143 7.75749L14.5858 10.5859C13.8048 11.367 13.8048 12.6333 14.5858 13.4144L17.4142 16.2428Z" fill="#0F0F0F"/>
</svg>