<?xml version="1.0" encoding="utf-8"?><!-- Uploaded to: SVG Repo, www.svgrepo.com, Generator: SVG Repo Mixer Tools -->
<svg width="800px" height="800px" viewBox="0 0 24 24" fill="none" xmlns="http://www.w3.org/2000/svg">
<path d="M21 7C21 7.55228 21.4477 8 22 8C22.5523 8 23 7.55228 23 7V3C23 1.89543 22.1046 1 21 1H17C16.4477 1 16 1.44772 16 2C16 2.55228 16.4477 3 17 3H19.5858L3 19.5858V17C3 16.4477 2.55228 16 2 16C1.44772 16 1 16.4477 1 17V21C1 22.1046 1.89543 23 3 23H7C7.55228 23 8 22.5523 8 22C8 21.4477 7.55228 21 7 21H4.41421L21 4.41421V7Z" fill="#0F0F0F"/>
</svg>