<?xml version="1.0" encoding="utf-8"?><!-- Uploaded to: SVG Repo, www.svgrepo.com, Generator: SVG Repo Mixer Tools -->
<svg width="800px" height="800px" viewBox="0 0 24 24" fill="none" xmlns="http://www.w3.org/2000/svg">
<path d="M22 16C21.4477 16 21 16.4477 21 17V19.5858L14.7071 13.2929C14.3166 12.9024 13.6834 12.9024 13.2929 13.2929C12.9024 13.6834 12.9024 14.3166 13.2929 14.7071L19.5858 21H17C16.4477 21 16 21.4477 16 22C16 22.5523 16.4477 23 17 23H21C22.1046 23 23 22.1046 23 21V17C23 16.4477 22.5523 16 22 16Z" fill="#0F0F0F"/>
<path d="M2 8C2.55228 8 3 7.55228 3 7V4.41422L9.29289 10.7071C9.68342 11.0976 10.3166 11.0976 10.7071 10.7071C11.0976 10.3166 11.0976 9.68342 10.7071 9.29289L4.41421 3H7C7.55228 3 8 2.55228 8 2C8 1.44772 7.55228 1 7 1H3C1.89543 1 1 1.89543 1 3V7C1 7.55228 1.44772 8 2 8Z" fill="#0F0F0F"/>
</svg>