<?xml version="1.0" encoding="utf-8"?><!-- Uploaded to: SVG Repo, www.svgrepo.com, Generator: SVG Repo Mixer Tools -->
<svg width="800px" height="800px" viewBox="0 0 24 24" fill="none" xmlns="http://www.w3.org/2000/svg">
<path d="M18.3432 16.2428C18.7337 16.6333 19.3669 16.6333 19.7574 16.2428L22.5858 13.4144C23.3669 12.6333 23.3669 11.367 22.5858 10.5859L19.7573 7.75749C19.3668 7.36697 18.7336 7.36697 18.3431 7.75749C17.9526 8.14802 17.9526 8.78118 18.3431 9.17171L20.1715 11.0001L15 11.0001C14.4477 11.0001 14 11.4478 14 12.0001C14 12.5524 14.4477 13.0001 15 13.0001H20.1716L18.3432 14.8286C17.9527 15.2191 17.9527 15.8523 18.3432 16.2428Z" fill="#0F0F0F"/>
<path d="M5.65706 7.75752C5.26653 7.367 4.63337 7.367 4.24284 7.75752L1.41442 10.5859C0.633365 11.367 0.633215 12.6333 1.41426 13.4144L4.24269 16.2428C4.63321 16.6333 5.26638 16.6333 5.6569 16.2428C6.04743 15.8523 6.04743 15.2191 5.6569 14.8286L3.82843 13.0001L9 13.0001C9.55228 13.0001 10 12.5524 10 12.0001C10 11.4478 9.55228 11.0001 9 11.0001L3.82867 11.0001L5.65706 9.17173C6.04758 8.78121 6.04758 8.14805 5.65706 7.75752Z" fill="#0F0F0F"/>
</svg>