<?xml version="1.0" encoding="utf-8"?><!-- Uploaded to: SVG Repo, www.svgrepo.com, Generator: SVG Repo Mixer Tools -->
<svg width="800px" height="800px" viewBox="0 0 24 24" fill="none" xmlns="http://www.w3.org/2000/svg">
<path d="M16.2427 5.6568C16.6332 5.26627 16.6332 4.63311 16.2427 4.24258L13.4142 1.41416C12.6332 0.633107 11.3669 0.633107 10.5858 1.41416L7.75737 4.24268C7.36685 4.6332 7.36685 5.26637 7.75737 5.65689C8.1479 6.04741 8.78106 6.04741 9.17158 5.65689L11 3.82847V8.99998C11 9.55227 11.4477 9.99998 12 9.99998C12.5523 9.99998 13 9.55227 13 8.99998V3.82835L14.8284 5.6568C15.219 6.04732 15.8521 6.04732 16.2427 5.6568Z" fill="#0F0F0F"/>
<path d="M7.7574 18.3429C7.36688 18.7334 7.36688 19.3666 7.7574 19.7571L10.5858 22.5856C11.3669 23.3666 12.6332 23.3668 13.4143 22.5857L16.2427 19.7573C16.6332 19.3668 16.6332 18.7336 16.2427 18.3431C15.8522 17.9526 15.219 17.9526 14.8285 18.3431L13 20.1716L13 15C13 14.4477 12.5523 14 12 14C11.4477 14 11 14.4477 11 15L11 20.1713L9.17161 18.3429C8.78109 17.9524 8.14792 17.9524 7.7574 18.3429Z" fill="#0F0F0F"/>
</svg>