<?xml version="1.0" encoding="utf-8"?><!-- Uploaded to: SVG Repo, www.svgrepo.com, Generator: SVG Repo Mixer Tools -->
<svg width="800px" height="800px" viewBox="0 0 24 24" fill="none" xmlns="http://www.w3.org/2000/svg">
<path d="M14.5539 0.266426C13.8253 0.133946 13.1958 0.0675866 12.7458 0.0342381C12.4999 0.016017 12.2535 0.00296769 12.0069 0.000249764C10.7293 -0.00362881 10.6712 2.00023 12 2.00023C12 2.00023 12.3991 2.01403 12.598 2.02877C12.9917 2.05794 13.5497 2.11661 14.1961 2.23416C15.503 2.4718 17.104 2.93818 18.4453 3.83236C19.7419 4.69673 20.6443 6.02489 21.2306 7.19741C21.5198 7.77585 21.7224 8.2969 21.8519 8.671C21.9169 8.85875 21.9781 9.04816 22.0292 9.24022C22.1656 9.76335 22.7132 10.1026 23.2425 9.97026C23.7725 9.83777 24.0998 9.26061 23.9649 8.73694C23.9003 8.49401 23.8241 8.25425 23.7419 8.01677C23.5901 7.57839 23.3552 6.97448 23.0194 6.30296C22.3557 4.97556 21.2581 3.3038 19.5547 2.16824C17.896 1.06249 15.997 0.528832 14.5539 0.266426Z" fill="#0F0F0F"/>
<path d="M11.5006 3.96632C11.5189 3.42041 11.9902 2.98177 12.5356 3.00058C13.0179 3.01798 13.5012 3.08406 13.9759 3.16693C14.7966 3.31018 15.9004 3.58234 16.9472 4.10577C18.1042 4.68425 18.9718 5.72828 19.5221 6.53454C19.8061 6.95066 20.0256 7.33362 20.1748 7.6135C20.2564 7.76674 20.3349 7.92177 20.4073 8.0796C20.6298 8.57329 20.4052 9.19208 19.9064 9.41391C19.397 9.64046 18.807 9.38741 18.5793 8.89139C18.5331 8.79152 18.2788 8.26077 17.8701 7.66193C17.3844 6.95022 16.7521 6.24425 16.0528 5.89462C15.2434 5.48994 14.3472 5.26198 13.632 5.13714C13.2473 5.07 12.8569 5.01681 12.4664 4.99938C11.9146 4.98062 11.482 4.51817 11.5006 3.96632Z" fill="#0F0F0F"/>
<path d="M7 13.0002C6.45439 13.0002 5.99972 12.5446 6 11.9992C6.00079 11.6834 6.03991 11.3655 6.09173 11.0546C6.18077 10.5204 6.36071 9.79275 6.73057 9.05303C7.10239 8.3094 7.67581 7.53535 8.55467 6.94944C9.43979 6.35936 10.575 6.00024 12 6.00024C13.425 6.00024 14.5602 6.35936 15.4453 6.94944C16.3242 7.53535 16.8976 8.3094 17.2694 9.05303C17.6393 9.79275 17.8192 10.5204 17.9083 11.0546C17.96 11.3652 17.999 11.6826 18 11.9981C18.0006 12.6978 17.9031 13.4163 17.5699 14.0411C17.3529 14.448 17.0532 14.771 16.8543 14.9855C16.814 15.0289 16.7779 15.0678 16.7474 15.1021C16.5501 15.3241 16.3872 15.5404 16.257 15.9147C16.1184 16.3133 16 16.943 16 18.0002V19.0002C16 19.6313 15.8482 20.6037 15.2567 21.4487C14.6248 22.3515 13.5633 23.0002 12 23.0002C10.4417 23.0002 9.42374 22.3603 8.80992 21.6587C8.45991 21.2587 8.16135 20.7646 8.03014 20.2439C7.89764 19.7148 8.22799 19.1625 8.75746 19.0301C9.28873 18.8973 9.82701 19.2164 9.96666 19.7442C9.97446 19.7702 10.0746 20.0669 10.3151 20.3417C10.5763 20.6402 11.0583 21.0002 12 21.0002C12.9367 21.0002 13.3752 20.649 13.6183 20.3018C13.9018 19.8968 14 19.3692 14 19.0002V18.0002C14 16.8075 14.1316 15.9372 14.368 15.2577C14.6128 14.5538 14.9499 14.1139 15.2526 13.7734C15.3328 13.6832 15.4004 13.6093 15.4584 13.5458C15.6311 13.357 15.7198 13.2601 15.8051 13.1C15.895 12.9315 15.9996 12.6364 16 12.0035C15.9969 11.796 15.9695 11.5876 15.9355 11.3834C15.8683 10.9801 15.7357 10.4577 15.4806 9.94746C15.2274 9.44109 14.8633 8.96514 14.3359 8.61354C13.8148 8.26612 13.075 8.00024 12 8.00024C10.925 8.00024 10.1852 8.26612 9.66407 8.61354C9.13668 8.96514 8.77261 9.44109 8.51943 9.94746C8.26428 10.4577 8.13173 10.9801 8.06452 11.3834C8.01476 11.682 8.00315 11.9028 8.00067 11.9774C7.98531 12.525 7.56835 13.0002 7 13.0002Z" fill="#0F0F0F"/>
<path d="M11.2982 11.1587C11.1397 11.2657 11.0054 11.3868 10.9098 11.4834C10.4958 11.9019 9.93742 12.2206 9.38418 11.7882C8.8943 11.4053 8.91303 10.7248 9.2963 10.2832C9.43367 10.1249 9.73339 9.80198 10.1794 9.50096C10.7525 9.11417 11.711 8.68309 12.8163 9.05164C13.8433 9.39408 14.3918 10.151 14.6691 10.7516C14.8078 11.052 14.8874 11.3296 14.933 11.5326C15.0769 12.1735 14.8595 12.9281 14.0882 12.9964C13.5413 13.0448 13.0582 12.6433 13.0048 12.098C13.0024 12.0782 12.9656 11.8331 12.8533 11.5899C12.7213 11.3041 12.5198 11.061 12.1837 10.9489C11.9259 10.863 11.6343 10.9319 11.2982 11.1587Z" fill="#0F0F0F"/>
<path d="M2.70711 21.2931C3.09763 21.6837 3.09763 22.3168 2.70711 22.7074L1.70711 23.7074C1.31658 24.0979 0.683418 24.0979 0.292893 23.7074C-0.0976311 23.3168 -0.0976311 22.6837 0.292893 22.2931L1.29289 21.2931C1.68342 20.9026 2.31658 20.9026 2.70711 21.2931Z" fill="#0F0F0F"/>
<path d="M6.20711 17.7931C6.59763 18.1837 6.59763 18.8168 6.20711 19.2074L5.20711 20.2074C4.81658 20.5979 4.18342 20.5979 3.79289 20.2074C3.40237 19.8168 3.40237 19.1837 3.79289 18.7931L4.79289 17.7931C5.18342 17.4026 5.81658 17.4026 6.20711 17.7931Z" fill="#0F0F0F"/>
<path d="M9.70711 14.2931C10.0976 14.6837 10.0976 15.3168 9.70711 15.7074L8.70711 16.7074C8.31658 17.0979 7.68342 17.0979 7.29289 16.7074C6.90237 16.3168 6.90237 15.6837 7.29289 15.2931L8.29289 14.2931C8.68342 13.9026 9.31658 13.9026 9.70711 14.2931Z" fill="#0F0F0F"/>
</svg>