<?xml version="1.0" encoding="utf-8"?><!-- Uploaded to: SVG Repo, www.svgrepo.com, Generator: SVG Repo Mixer Tools -->
<svg width="800px" height="800px" viewBox="0 0 24 24" fill="none" xmlns="http://www.w3.org/2000/svg">
<path fill-rule="evenodd" clip-rule="evenodd" d="M13 9.50024C13 8.67182 13.6716 8.00024 14.5 8.00024H15.7639C16.9002 8.00024 17.939 8.64225 18.4472 9.6586L18.4721 9.70845C18.8193 10.4027 19 11.1683 19 11.9445V12.056C19 12.8322 18.8193 13.5978 18.4721 14.292L18.4472 14.3419C17.939 15.3582 16.9002 16.0002 15.7639 16.0002H14.5C13.6716 16.0002 13 15.3287 13 14.5002V9.50024ZM15.7639 10.0002H15V14.0002H15.7639C16.1427 14.0002 16.489 13.7862 16.6584 13.4475L16.6833 13.3976C16.8916 12.981 17 12.5217 17 12.056V11.9445C17 11.4788 16.8916 11.0194 16.6833 10.6029L16.6584 10.553C16.489 10.2142 16.1427 10.0002 15.7639 10.0002Z" fill="#0F0F0F"/>
<path fill-rule="evenodd" clip-rule="evenodd" d="M8 8.00024C6.34315 8.00024 5 9.34339 5 11.0002V15.0002C5 15.5525 5.44772 16.0002 6 16.0002C6.55228 16.0002 7 15.5525 7 15.0002V14.0002H9V15.0002C9 15.5525 9.44772 16.0002 10 16.0002C10.5523 16.0002 11 15.5525 11 15.0002V11.0002C11 9.34339 9.65685 8.00024 8 8.00024ZM9 11.0002V12.0002H7V11.0002C7 10.448 7.44772 10.0002 8 10.0002C8.55228 10.0002 9 10.448 9 11.0002Z" fill="#0F0F0F"/>
<path fill-rule="evenodd" clip-rule="evenodd" d="M23 6.00024C23 4.34339 21.6569 3.00024 20 3.00024H4C2.34315 3.00024 1 4.34339 1 6.00024V18.0002C1 19.6571 2.34315 21.0002 4 21.0002H20C21.6569 21.0002 23 19.6571 23 18.0002V6.00024ZM21 6.00024C21 5.44796 20.5523 5.00024 20 5.00024H4C3.44772 5.00024 3 5.44796 3 6.00024V18.0002C3 18.5525 3.44772 19.0002 4 19.0002H20C20.5523 19.0002 21 18.5525 21 18.0002V6.00024Z" fill="#0F0F0F"/>
</svg>