<?xml version="1.0" encoding="utf-8"?><!-- Uploaded to: SVG Repo, www.svgrepo.com, Generator: SVG Repo Mixer Tools -->
<svg width="800px" height="800px" viewBox="0 0 24 24" fill="none" xmlns="http://www.w3.org/2000/svg">
<path fill-rule="evenodd" clip-rule="evenodd" d="M6 1C6.55228 1 7 1.44772 7 2V4H17V2C17 1.44772 17.4477 1 18 1C18.5523 1 19 1.44772 19 2V4H20C21.6569 4 23 5.34315 23 7V11C23 12.6569 21.6569 14 20 14H19V22C19 22.5523 18.5523 23 18 23C17.4477 23 17 22.5523 17 22V14H7L7 22C7 22.5523 6.55228 23 6 23C5.44772 23 5 22.5523 5 22L5 14H4C2.34315 14 1 12.6569 1 11V7C1 5.34315 2.34315 4 4 4H5V2C5 1.44772 5.44772 1 6 1ZM3 7C3 6.44772 3.44772 6 4 6H6.38197L3.4608 11.8423C3.18365 11.6645 3 11.3537 3 11V7ZM5.61803 12H7.38197L10.382 6H8.61803L5.61803 12ZM12.618 6L9.61803 12H11.382L14.382 6H12.618ZM16.618 6L13.618 12H15.382L18.382 6H16.618ZM20.5392 6.15767L17.618 12H20C20.5523 12 21 11.5523 21 11V7C21 6.64628 20.8163 6.33545 20.5392 6.15767Z" fill="#0F0F0F"/>
</svg>