<?xml version="1.0" encoding="utf-8"?><!-- Uploaded to: SVG Repo, www.svgrepo.com, Generator: SVG Repo Mixer Tools -->
<svg width="800px" height="800px" viewBox="0 0 24 24" fill="none" xmlns="http://www.w3.org/2000/svg">
<path fill-rule="evenodd" clip-rule="evenodd" d="M14.2361 12C14.7111 11.4692 15 10.7684 15 10C15 8.34315 13.6569 7 12 7C10.3431 7 9 8.34315 9 10C9 10.7684 9.28885 11.4692 9.7639 12C9.28885 12.5308 9 13.2316 9 14C9 15.6569 10.3431 17 12 17C13.6569 17 15 15.6569 15 14C15 13.2316 14.7111 12.5308 14.2361 12ZM12.1519 12.9962C12.0513 13.0012 11.9487 13.0012 11.8481 12.9962C11.3595 13.0695 10.9849 13.491 10.9849 14C10.9849 14.5606 11.4394 15.0151 12 15.0151C12.5606 15.0151 13.0151 14.5606 13.0151 14C13.0151 13.491 12.6405 13.0695 12.1519 12.9962ZM11.8481 11.0038C11.9487 10.9988 12.0513 10.9988 12.1519 11.0038C12.6405 10.9305 13.0151 10.509 13.0151 10C13.0151 9.43939 12.5606 8.98493 12 8.98493C11.4394 8.98493 10.9849 9.43939 10.9849 10C10.9849 10.509 11.3595 10.9305 11.8481 11.0038Z" fill="#0F0F0F"/>
<path fill-rule="evenodd" clip-rule="evenodd" d="M22.9999 11.9998C22.9999 18.0749 18.075 22.9998 11.9999 22.9998C5.92478 22.9998 0.999908 18.0749 0.999908 11.9998C0.999908 5.92462 5.92478 0.999756 11.9999 0.999756C18.075 0.999756 22.9999 5.92462 22.9999 11.9998ZM3.00674 11.9998C3.00674 16.9665 7.03312 20.9929 11.9999 20.9929C16.9667 20.9929 20.9931 16.9665 20.9931 11.9998C20.9931 7.03297 16.9667 3.00659 11.9999 3.00659C7.03312 3.00659 3.00674 7.03297 3.00674 11.9998Z" fill="#0F0F0F"/>
</svg>