<?xml version="1.0" encoding="utf-8"?><!-- Uploaded to: SVG Repo, www.svgrepo.com, Generator: SVG Repo Mixer Tools -->
<svg width="800px" height="800px" viewBox="0 0 24 24" fill="none" xmlns="http://www.w3.org/2000/svg">
<path fill-rule="evenodd" clip-rule="evenodd" d="M11 9.58575V2.4828C11 1.41372 12.2926 0.878314 13.0485 1.63427L17.5657 6.15143C18.0343 6.62006 18.0343 7.37986 17.5657 7.84849L13.4142 12L17.5657 16.1514C18.0343 16.6201 18.0343 17.3799 17.5657 17.8485L13.0485 22.3656C12.2926 23.1216 11 22.5862 11 21.5171V14.4142L9.38073 16.0335C9.36854 16.047 9.35592 16.0604 9.34286 16.0734L7.80812 17.6082C7.41709 17.9992 6.78311 17.9992 6.39208 17.6082C6.00105 17.2171 6.00105 16.5832 6.39208 16.1921L7.92682 14.6574C7.93802 14.6462 7.94941 14.6353 7.96099 14.6248L10.5858 12L8.00934 9.4235C7.9986 9.41364 7.98802 9.40351 7.97761 9.3931L6.39083 7.80632C5.99993 7.41543 5.99993 6.78166 6.39083 6.39076C6.78172 5.99987 7.41549 5.99987 7.80639 6.39076L9.39317 7.97754C9.40362 7.98799 9.41379 7.99862 9.42368 8.0094L11 9.58575ZM13 4.41417V9.58575L15.5858 6.99996L13 4.41417ZM13 19.5857L15.5858 17L13 14.4142V19.5857Z" fill="#0F0F0F"/>
</svg>