<?xml version="1.0" encoding="utf-8"?><!-- Uploaded to: SVG Repo, www.svgrepo.com, Generator: SVG Repo Mixer Tools -->
<svg width="800px" height="800px" viewBox="0 0 24 24" fill="none" xmlns="http://www.w3.org/2000/svg">
<path d="M17.8944 5.44721C18.1414 4.95324 17.9412 4.35256 17.4472 4.10557C16.9532 3.85858 16.3526 4.05881 16.1056 4.55279L13.6414 9.48107L11.0435 7.53264C10.3319 6.99895 9.31491 7.19817 8.85727 7.96089L6.14251 12.4855C5.85836 12.9591 6.01192 13.5733 6.4855 13.8575C6.95908 14.1416 7.57334 13.9881 7.85749 13.5145L10.287 9.46527L12.9207 11.4405C13.6694 12.0021 14.7438 11.7484 15.1624 10.9114L17.8944 5.44721Z" fill="#0F0F0F"/>
<path fill-rule="evenodd" clip-rule="evenodd" d="M23 4C23 2.34315 21.6569 1 20 1H4C2.34315 1 1 2.34315 1 4V14C1 15.6569 2.34315 17 4 17H10.438L5.35982 21.2318C4.93554 21.5853 4.87821 22.2159 5.23178 22.6402C5.58534 23.0645 6.21591 23.1218 6.64018 22.7682L11 19.135V22C11 22.5523 11.4477 23 12 23C12.5523 23 13 22.5523 13 22V19.135L17.3598 22.7682C17.7841 23.1218 18.4147 23.0645 18.7682 22.6402C19.1218 22.2159 19.0645 21.5853 18.6402 21.2318L13.562 17H20C21.6569 17 23 15.6569 23 14V4ZM21 4C21 3.44772 20.5523 3 20 3H4C3.44772 3 3 3.44772 3 4V14C3 14.5523 3.44772 15 4 15H20C20.5523 15 21 14.5523 21 14V4Z" fill="#0F0F0F"/>
</svg>