<?xml version="1.0" encoding="utf-8"?><!-- Uploaded to: SVG Repo, www.svgrepo.com, Generator: SVG Repo Mixer Tools -->
<svg width="800px" height="800px" viewBox="0 0 24 24" fill="none" xmlns="http://www.w3.org/2000/svg">
<path d="M10.5 8C11.3284 8 12 7.32843 12 6.5C12 5.67157 11.3284 5 10.5 5C9.67157 5 9 5.67157 9 6.5C9 7.32843 9.67157 8 10.5 8Z" fill="#0F0F0F"/>
<path d="M8 10.5C8 11.3284 7.32843 12 6.5 12C5.67157 12 5 11.3284 5 10.5C5 9.67157 5.67157 9 6.5 9C7.32843 9 8 9.67157 8 10.5Z" fill="#0F0F0F"/>
<path d="M11.5 13C12.3284 13 13 12.3284 13 11.5C13 10.6716 12.3284 10 11.5 10C10.6716 10 10 10.6716 10 11.5C10 12.3284 10.6716 13 11.5 13Z" fill="#0F0F0F"/>
<path fill-rule="evenodd" clip-rule="evenodd" d="M11.9999 22.9998C18.075 22.9998 22.9999 18.0749 22.9999 11.9998C22.9999 5.92462 18.075 0.999756 11.9999 0.999756C5.92478 0.999756 0.999908 5.92462 0.999908 11.9998C0.999908 18.0749 5.92478 22.9998 11.9999 22.9998ZM11.9999 20.9929C7.03312 20.9929 3.00674 16.9665 3.00674 11.9998C3.00674 7.03297 7.03312 3.00659 11.9999 3.00659C16.9667 3.00659 20.9931 7.03297 20.9931 11.9998C20.9931 16.9665 16.9667 20.9929 11.9999 20.9929Z" fill="#0F0F0F"/>
</svg>