<?xml version="1.0" encoding="utf-8"?><!-- Uploaded to: SVG Repo, www.svgrepo.com, Generator: SVG Repo Mixer Tools -->
<svg width="800px" height="800px" viewBox="0 0 24 24" fill="none" xmlns="http://www.w3.org/2000/svg">
<path d="M10 1C10.5523 1 11 1.44772 11 2C11 2.55228 10.5523 3 10 3H8.41421L12.0429 6.62868L17.3787 1.2929C17.7692 0.902375 18.4024 0.902375 18.7929 1.2929C19.1834 1.68342 19.1834 2.31659 18.7929 2.70711L13.4592 8.04084C12.6823 8.81766 11.4255 8.82186 10.6434 8.05344C10.6163 8.02905 10.5896 8.0038 10.5635 7.97767L7 4.41422L7 6C7 6.55228 6.55228 7 6 7C5.44772 7 5 6.55228 5 6L5 3C5 1.89543 5.89543 1 7 1H10Z" fill="#0F0F0F"/>
<path fill-rule="evenodd" clip-rule="evenodd" d="M12 12C6.8401 12 3.01237 13.8862 1.27396 14.9405C0.274923 15.5463 -0.135542 16.6912 0.0390736 17.7514L0.49684 20.5308C0.764683 22.157 2.29601 23.2467 3.89895 22.9518L6.36463 22.4982C7.41126 22.3056 8.11123 21.2984 7.93635 20.2365L7.70655 18.8413C8.29388 18.4933 9.62863 17.9088 12 17.9088C14.3714 17.9088 15.7061 18.4933 16.2935 18.8413L16.0637 20.2365C15.8888 21.2984 16.5887 22.3056 17.6354 22.4982L20.101 22.9518C21.704 23.2467 23.2353 22.157 23.5032 20.5308L23.9609 17.7514C24.1355 16.6912 23.7251 15.5463 22.726 14.9405C20.9876 13.8862 17.1599 12 12 12ZM2.2745 16.6299C3.82761 15.688 7.30768 13.9696 12 13.9696C16.6923 13.9696 20.1724 15.688 21.7255 16.6299C21.9525 16.7676 22.1014 17.061 22.041 17.4276L21.5833 20.207C21.494 20.749 20.9835 21.1123 20.4492 21.014L17.9836 20.5603L18.2302 19.063C18.3309 18.4511 18.1417 17.6997 17.4821 17.2691C16.6588 16.7317 14.9385 15.9392 12 15.9392C9.06148 15.9392 7.34118 16.7317 6.51793 17.2691C5.85834 17.6997 5.66906 18.4511 5.76984 19.063L6.01645 20.5603L3.55077 21.014C3.01646 21.1123 2.50602 20.749 2.41674 20.207L1.95897 17.4276C1.8986 17.061 2.04751 16.7676 2.2745 16.6299Z" fill="#0F0F0F"/>
</svg>