<?xml version="1.0" encoding="utf-8"?><!-- Uploaded to: SVG Repo, www.svgrepo.com, Generator: SVG Repo Mixer Tools -->
<svg width="800px" height="800px" viewBox="0 0 24 24" fill="none" xmlns="http://www.w3.org/2000/svg">
<path d="M4 10C4 5.73396 7.85113 3 12 3C16.1489 3 20 5.73396 20 10C20 10.454 19.9754 10.8721 19.9179 11.266C20.5903 11.4571 21.2214 11.7463 21.7949 12.1169C21.9438 11.4357 22 10.7354 22 10C22 4.26604 16.8511 1 12 1C7.14887 1 2 4.26604 2 10C2 11.9296 2.48785 13.5277 3.48189 14.8545C4.29326 15.9376 5.40034 16.7841 6.72616 17.4871C6.21203 18.5732 5.44439 19.5798 4.74413 20.3614C4.22087 20.9454 4.28848 21.6998 4.56243 22.1881C4.84055 22.6838 5.48665 23.1597 6.29772 22.9281C7.70002 22.5276 9.69758 21.9006 11.7072 21.0697C11.4166 20.475 11.2077 19.833 11.0954 19.1583C9.73434 19.7279 8.35158 20.2074 7.15155 20.5844C7.84997 19.6611 8.54129 18.5384 8.94868 17.3162L9.23259 16.4645L8.41627 16.0908C6.87746 15.3863 5.79002 14.5998 5.08252 13.6554C4.38842 12.7289 4 11.5704 4 10Z" fill="#0F0F0F"/>
<path fill-rule="evenodd" clip-rule="evenodd" d="M18 24C21.3137 24 24 21.3137 24 18C24 14.6863 21.3137 12 18 12C14.6863 12 12 14.6863 12 18C12 21.3137 14.6863 24 18 24ZM18 22.0181C15.7809 22.0181 13.9819 20.2191 13.9819 18C13.9819 17.2532 14.1857 16.5539 14.5406 15.9548L20.0452 21.4594C19.4461 21.8143 18.7468 22.0181 18 22.0181ZM21.4594 20.0452C21.8143 19.4461 22.0181 18.7468 22.0181 18C22.0181 15.7809 20.2191 13.9819 18 13.9819C17.2532 13.9819 16.5539 14.1857 15.9548 14.5406L21.4594 20.0452Z" fill="#0F0F0F"/>
</svg>