<?xml version="1.0" encoding="utf-8"?><!-- Uploaded to: SVG Repo, www.svgrepo.com, Generator: SVG Repo Mixer Tools -->
<svg width="800px" height="800px" viewBox="0 0 24 24" fill="none" xmlns="http://www.w3.org/2000/svg">
<path d="M21.9502 9.03733C21.983 9.34999 22 9.67093 22 10C22 11.629 21.7242 13.0861 20.7759 14.545C19.8531 15.9647 18.3449 17.3052 16.0547 18.8321C13.0781 20.8164 8.76589 22.2232 6.29772 22.9281C5.48665 23.1597 4.84055 22.6838 4.56243 22.1881C4.28848 21.6998 4.22087 20.9454 4.74413 20.3614C5.44439 19.5798 6.21203 18.5732 6.72616 17.4871C5.40034 16.7841 4.29326 15.9376 3.48189 14.8545C2.48785 13.5277 2 11.9296 2 10C2 4.26604 7.14887 1 12 1C13.1402 1 14.2969 1.18043 15.3992 1.53092C14.92 2.0282 14.5429 2.62451 14.3015 3.28612C13.5611 3.0981 12.7859 3 12 3C7.85113 3 4 5.73396 4 10C4 11.5704 4.38842 12.7289 5.08252 13.6554C5.79002 14.5998 6.87746 15.3863 8.41627 16.0908L9.23259 16.4645L8.94868 17.3162C8.54129 18.5384 7.84997 19.6611 7.15155 20.5844C9.56467 19.8263 12.7167 18.6537 14.9453 17.1679C17.1551 15.6948 18.3969 14.5353 19.0991 13.455C19.7758 12.4139 20 11.371 20 10C20 9.96661 19.9998 9.93332 19.9993 9.90013C20.7174 9.75446 21.3797 9.45489 21.9502 9.03733Z" fill="#0F0F0F"/>
<path d="M23 5C23 7.20914 21.2091 9 19 9C16.7909 9 15 7.20914 15 5C15 2.79086 16.7909 1 19 1C21.2091 1 23 2.79086 23 5ZM16.9825 5C16.9825 6.11423 17.8858 7.01748 19 7.01748C20.1142 7.01748 21.0175 6.11423 21.0175 5C21.0175 3.88577 20.1142 2.98252 19 2.98252C17.8858 2.98252 16.9825 3.88577 16.9825 5Z" fill="#0F0F0F"/>
</svg>