<?xml version="1.0" encoding="utf-8"?><!-- Uploaded to: SVG Repo, www.svgrepo.com, Generator: SVG Repo Mixer Tools -->
<svg width="800px" height="800px" viewBox="0 0 24 24" fill="none" xmlns="http://www.w3.org/2000/svg">
<path d="M16 10C16 9.44772 15.5523 9 15 9H9C8.44772 9 8 9.44771 8 10C8 10.5523 8.44772 11 9 11H15C15.5523 11 16 10.5523 16 10Z" fill="#0F0F0F"/>
<path fill-rule="evenodd" clip-rule="evenodd" d="M12 1C7.14887 1 2 4.26604 2 10C2 11.9296 2.48785 13.5277 3.48189 14.8545C4.29326 15.9376 5.40034 16.7841 6.72616 17.4871C6.21203 18.5732 5.44439 19.5798 4.74413 20.3614C4.22087 20.9454 4.28848 21.6998 4.56243 22.1881C4.84055 22.6838 5.48665 23.1597 6.29772 22.9281C8.76589 22.2232 13.0781 20.8164 16.0547 18.8321C18.3449 17.3052 19.8531 15.9647 20.7759 14.545C21.7242 13.0861 22 11.629 22 10C22 4.26604 16.8511 1 12 1ZM4 10C4 5.73396 7.85113 3 12 3C16.1489 3 20 5.73396 20 10C20 11.371 19.7758 12.4139 19.0991 13.455C18.3969 14.5353 17.1551 15.6948 14.9453 17.1679C12.7167 18.6537 9.56467 19.8263 7.15155 20.5844C7.84997 19.6611 8.54129 18.5384 8.94868 17.3162L9.2326 16.4645L8.41627 16.0908C6.87746 15.3863 5.79003 14.5998 5.08252 13.6554C4.38842 12.7289 4 11.5704 4 10Z" fill="#0F0F0F"/>
</svg>