<?xml version="1.0" encoding="utf-8"?><!-- Uploaded to: SVG Repo, www.svgrepo.com, Generator: SVG Repo Mixer Tools -->
<svg width="800px" height="800px" viewBox="0 0 24 24" fill="none" xmlns="http://www.w3.org/2000/svg">
<path d="M15.5 10.0002C14.9477 10.0002 14.5 10.448 14.5 11.0002V13.0002C14.5 13.5524 14.9477 14.0002 15.5 14.0002C16.1373 14.0002 16.5095 13.8944 16.6911 13.8218C16.7768 13.7875 16.8243 13.759 16.8407 13.7483C17.2335 13.4032 17.8321 13.4182 18.2071 13.7931C18.5933 14.1793 18.5918 14.823 18.2061 15.2084C18.1294 15.2847 18.043 15.3505 17.9531 15.4104C17.8255 15.4955 17.6547 15.5904 17.4339 15.6787C16.9905 15.8561 16.3627 16.0002 15.5 16.0002C13.8432 16.0001 12.5 14.657 12.5 13.0002V11.0002C12.5 9.34339 13.8431 8.00024 15.5 8.00024C16.3627 8.00024 16.9905 8.14442 17.4339 8.32177C17.6547 8.41009 17.8255 8.50496 17.9531 8.59007C18.0417 8.64908 18.1269 8.71426 18.2029 8.78891C18.5874 9.17071 18.5909 9.82358 18.2071 10.2074C17.8321 10.5823 17.2335 10.5973 16.8407 10.2522C16.8243 10.2415 16.7768 10.213 16.6911 10.1787C16.5095 10.1061 16.1373 10.0002 15.5 10.0002Z" fill="#0F0F0F"/>
<path d="M7.5 11.0003C7.5 10.448 7.94772 10.0003 8.5 10.0003C9.1373 10.0003 9.50951 10.1061 9.69115 10.1788C9.77679 10.213 9.8243 10.2416 9.84075 10.2522C10.2336 10.5973 10.8322 10.5823 11.2071 10.2073C11.5933 9.82109 11.5917 9.17743 11.206 8.79206C11.1372 8.72362 11.0663 8.66552 10.9531 8.59005C10.8254 8.50495 10.6547 8.41009 10.4339 8.32178C9.99049 8.14445 9.3627 8.0003 8.5 8.0003C6.84315 8.0003 5.5 9.34345 5.5 11.0003V13.0002C5.5 14.6571 6.84321 16.0002 8.49996 16.0002C9.3627 16.0003 9.99051 15.8561 10.4339 15.6787C10.6547 15.5904 10.8255 15.4955 10.9532 15.4104C11.0426 15.3508 11.1286 15.2852 11.205 15.2094C11.5882 14.8277 11.5898 14.1758 11.2071 13.7931C10.8321 13.4182 10.2334 13.4032 9.84067 13.7483C9.82421 13.759 9.77672 13.7875 9.69109 13.8218C9.50949 13.8944 9.1373 14.0003 8.50004 14.0002C7.94773 14.0002 7.5 13.5525 7.5 13.0002V11.0003Z" fill="#0F0F0F"/>
<path fill-rule="evenodd" clip-rule="evenodd" d="M20 3.00024C21.6569 3.00024 23 4.34339 23 6.00024V18.0002C23 19.6571 21.6569 21.0002 20 21.0002H4C2.34315 21.0002 1 19.6571 1 18.0002V6.00024C1 4.34339 2.34315 3.00024 4 3.00024H20ZM20 5.00024C20.5523 5.00024 21 5.44796 21 6.00024V18.0002C21 18.5525 20.5523 19.0002 20 19.0002H4C3.44772 19.0002 3 18.5525 3 18.0002V6.00024C3 5.44796 3.44772 5.00024 4 5.00024H20Z" fill="#0F0F0F"/>
</svg>