<?xml version="1.0" encoding="utf-8"?><!-- Uploaded to: SVG Repo, www.svgrepo.com, Generator: SVG Repo Mixer Tools -->
<svg width="800px" height="800px" viewBox="0 0 24 24" fill="none" xmlns="http://www.w3.org/2000/svg">
<path fill-rule="evenodd" clip-rule="evenodd" d="M12 23C18.0751 23 23 18.0751 23 12C23 5.92487 18.0751 1 12 1C5.92487 1 1 5.92487 1 12C1 18.0751 5.92487 23 12 23ZM12 20.9932C7.03321 20.9932 3.00683 16.9668 3.00683 12C3.00683 9.87687 3.74256 7.92557 4.97297 6.38716L6.99191 8.4061C6.09967 8.92595 5.5 9.89297 5.5 11.0001V13C5.5 14.6568 6.84321 15.9999 8.49996 16C9.3627 16 9.99051 15.8559 10.4339 15.6785C10.6547 15.5902 10.8255 15.4953 10.9532 15.4102C11.0426 15.3506 11.1286 15.2849 11.205 15.2092C11.5882 14.8274 11.5898 14.1756 11.2071 13.7929C10.8321 13.4179 10.2334 13.403 9.84067 13.7481C9.82421 13.7588 9.77672 13.7873 9.69109 13.8216C9.50949 13.8942 9.1373 14 8.50004 14C7.94773 14 7.5 13.5522 7.5 13V11.0001C7.5 10.4478 7.94772 10.0001 8.5 10.0001C8.52941 10.0001 8.55825 10.0003 8.58653 10.0007L12.7231 14.1373C13.0274 14.8794 13.6205 15.4725 14.3626 15.7768L17.6128 19.027C16.0744 20.2574 14.1231 20.9932 12 20.9932ZM19.0271 17.6128C20.2575 16.0744 20.9932 14.1231 20.9932 12C20.9932 7.03321 16.9668 3.00683 12 3.00683C9.87688 3.00683 7.9256 3.74255 6.38719 4.97295L9.48523 8.07098C9.86775 8.12995 10.1808 8.22034 10.4339 8.32154C10.6547 8.40985 10.8254 8.50471 10.9531 8.5898C11.0663 8.66528 11.1372 8.72337 11.206 8.79181C11.52 9.10551 11.5795 9.59035 11.3824 9.96817L12.5 11.0858V11C12.5 9.34315 13.8431 8 15.5 8C16.3627 8 16.9905 8.14417 17.4339 8.32152C17.6547 8.40985 17.8255 8.50471 17.9531 8.58982C18.0417 8.64884 18.1269 8.71402 18.2029 8.78866C18.5874 9.17047 18.5909 9.82334 18.2071 10.2071C17.8321 10.5821 17.2335 10.597 16.8407 10.2519C16.8242 10.2413 16.7768 10.2127 16.6911 10.1785C16.5095 10.1058 16.1373 10 15.5 10C14.9477 10 14.5 10.4477 14.5 11V12.9999C14.5 13.0302 14.5013 13.0602 14.504 13.0897L15.4102 13.996C15.4398 13.9986 15.4698 13.9999 15.5 13.9999C16.1373 14 16.5095 13.8941 16.6911 13.8215C16.7768 13.7873 16.8243 13.7587 16.8407 13.7481C17.2335 13.403 17.8321 13.4179 18.2071 13.7929C18.5933 14.1791 18.5918 14.8228 18.2061 15.2081C18.1294 15.2844 18.043 15.3503 17.9531 15.4102C17.8255 15.4953 17.6547 15.5902 17.4339 15.6785C17.3559 15.7097 17.2722 15.7398 17.1826 15.7683L19.0271 17.6128Z" fill="#0F0F0F"/>
</svg>