<?xml version="1.0" encoding="utf-8"?><!-- Uploaded to: SVG Repo, www.svgrepo.com, Generator: SVG Repo Mixer Tools -->
<svg width="800px" height="800px" viewBox="0 0 24 24" fill="none" xmlns="http://www.w3.org/2000/svg">
<path d="M8.5 10.0001C7.94772 10.0001 7.5 10.4478 7.5 11.0001V13C7.5 13.5522 7.94773 14 8.50004 14C9.1373 14 9.50949 13.8942 9.69109 13.8216C9.77672 13.7873 9.82421 13.7588 9.84067 13.7481C10.2334 13.403 10.8321 13.4179 11.2071 13.7929C11.5898 14.1756 11.5882 14.8274 11.205 15.2092C11.1286 15.2849 11.0426 15.3506 10.9532 15.4102C10.8255 15.4953 10.6547 15.5902 10.4339 15.6785C9.99051 15.8559 9.3627 16 8.49996 16C6.84321 15.9999 5.5 14.6568 5.5 13V11.0001C5.5 9.3432 6.84315 8.00006 8.5 8.00006C9.3627 8.00006 9.99049 8.14421 10.4339 8.32154C10.6547 8.40985 10.8254 8.50471 10.9531 8.5898C11.0663 8.66528 11.1372 8.72337 11.206 8.79181C11.5917 9.17718 11.5933 9.82084 11.2071 10.2071C10.8322 10.582 10.2336 10.597 9.84075 10.252C9.8243 10.2413 9.77679 10.2128 9.69115 10.1785C9.50951 10.1059 9.1373 10.0001 8.5 10.0001Z" fill="#0F0F0F"/>
<path d="M14.5 11C14.5 10.4477 14.9477 10 15.5 10C16.1373 10 16.5095 10.1058 16.6911 10.1785C16.7768 10.2127 16.8243 10.2413 16.8407 10.2519C17.2335 10.597 17.8321 10.5821 18.2071 10.2071C18.5909 9.82334 18.5874 9.17047 18.2029 8.78866C18.1269 8.71402 18.0417 8.64884 17.9531 8.58982C17.8255 8.50472 17.6547 8.40984 17.4339 8.32152C16.9905 8.14417 16.3627 8 15.5 8C13.8431 8 12.5 9.34315 12.5 11V12.9999C12.5 14.6568 13.8432 15.9999 15.5 15.9999C16.3627 16 16.9905 15.8558 17.4339 15.6785C17.6547 15.5902 17.8255 15.4953 17.9531 15.4102C18.043 15.3503 18.1294 15.2844 18.2061 15.2081C18.5918 14.8228 18.5933 14.1791 18.2071 13.7929C17.8321 13.4179 17.2335 13.403 16.8407 13.7481C16.8243 13.7587 16.7768 13.7873 16.6911 13.8215C16.5095 13.8941 16.1373 14 15.5 13.9999C14.9477 13.9999 14.5 13.5522 14.5 12.9999V11Z" fill="#0F0F0F"/>
<path fill-rule="evenodd" clip-rule="evenodd" d="M23 12C23 18.0751 18.0751 23 12 23C5.92487 23 1 18.0751 1 12C1 5.92487 5.92487 1 12 1C18.0751 1 23 5.92487 23 12ZM3.00683 12C3.00683 16.9668 7.03321 20.9932 12 20.9932C16.9668 20.9932 20.9932 16.9668 20.9932 12C20.9932 7.03321 16.9668 3.00683 12 3.00683C7.03321 3.00683 3.00683 7.03321 3.00683 12Z" fill="#0F0F0F"/>
</svg>