<?xml version="1.0" encoding="utf-8"?><!-- Uploaded to: SVG Repo, www.svgrepo.com, Generator: SVG Repo Mixer Tools -->
<svg width="800px" height="800px" viewBox="0 0 24 24" fill="none" xmlns="http://www.w3.org/2000/svg">
<path fill-rule="evenodd" clip-rule="evenodd" d="M5 1C3.89543 1 3 1.89543 3 3V4C3 5.10457 3.89543 6 5 6H6C7.10457 6 8 5.10457 8 4V3C8 1.89543 7.10457 1 6 1H5ZM5.5 4.5C6.05228 4.5 6.5 4.05228 6.5 3.5C6.5 2.94772 6.05228 2.5 5.5 2.5C4.94772 2.5 4.5 2.94772 4.5 3.5C4.5 4.05228 4.94772 4.5 5.5 4.5Z" fill="#0F0F0F"/>
<path fill-rule="evenodd" clip-rule="evenodd" d="M5 7C3.89543 7 3 7.89543 3 9V10C3 11.1046 3.89543 12 5 12H6C7.10457 12 8 11.1046 8 10V9C8 7.89543 7.10457 7 6 7H5ZM5.5 10.5C6.05228 10.5 6.5 10.0523 6.5 9.5C6.5 8.94772 6.05228 8.5 5.5 8.5C4.94772 8.5 4.5 8.94772 4.5 9.5C4.5 10.0523 4.94772 10.5 5.5 10.5Z" fill="#0F0F0F"/>
<path fill-rule="evenodd" clip-rule="evenodd" d="M5 13C3.89543 13 3 13.8954 3 15V16C3 17.1046 3.89543 18 5 18H6C7.10457 18 8 17.1046 8 16V15C8 13.8954 7.10457 13 6 13H5ZM5.5 16.5C6.05228 16.5 6.5 16.0523 6.5 15.5C6.5 14.9477 6.05228 14.5 5.5 14.5C4.94772 14.5 4.5 14.9477 4.5 15.5C4.5 16.0523 4.94772 16.5 5.5 16.5Z" fill="#0F0F0F"/>
<path fill-rule="evenodd" clip-rule="evenodd" d="M11.5 1C10.3954 1 9.5 1.89543 9.5 3V4C9.5 5.10457 10.3954 6 11.5 6H12.5C13.6046 6 14.5 5.10457 14.5 4V3C14.5 1.89543 13.6046 1 12.5 1H11.5ZM12 4.5C12.5523 4.5 13 4.05228 13 3.5C13 2.94772 12.5523 2.5 12 2.5C11.4477 2.5 11 2.94772 11 3.5C11 4.05228 11.4477 4.5 12 4.5Z" fill="#0F0F0F"/>
<path fill-rule="evenodd" clip-rule="evenodd" d="M11.5 7C10.3954 7 9.5 7.89543 9.5 9V10C9.5 11.1046 10.3954 12 11.5 12H12.5C13.6046 12 14.5 11.1046 14.5 10V9C14.5 7.89543 13.6046 7 12.5 7H11.5ZM12 10.5C12.5523 10.5 13 10.0523 13 9.5C13 8.94772 12.5523 8.5 12 8.5C11.4477 8.5 11 8.94772 11 9.5C11 10.0523 11.4477 10.5 12 10.5Z" fill="#0F0F0F"/>
<path fill-rule="evenodd" clip-rule="evenodd" d="M11.5 13C10.3954 13 9.5 13.8954 9.5 15V16C9.5 17.1046 10.3954 18 11.5 18H12.5C13.6046 18 14.5 17.1046 14.5 16V15C14.5 13.8954 13.6046 13 12.5 13H11.5ZM12 16.5C12.5523 16.5 13 16.0523 13 15.5C13 14.9477 12.5523 14.5 12 14.5C11.4477 14.5 11 14.9477 11 15.5C11 16.0523 11.4477 16.5 12 16.5Z" fill="#0F0F0F"/>
<path fill-rule="evenodd" clip-rule="evenodd" d="M11.5 19C10.3954 19 9.5 19.8954 9.5 21V22C9.5 23.1046 10.3954 24 11.5 24H12.5C13.6046 24 14.5 23.1046 14.5 22V21C14.5 19.8954 13.6046 19 12.5 19H11.5ZM12 22.5C12.5523 22.5 13 22.0523 13 21.5C13 20.9477 12.5523 20.5 12 20.5C11.4477 20.5 11 20.9477 11 21.5C11 22.0523 11.4477 22.5 12 22.5Z" fill="#0F0F0F"/>
<path fill-rule="evenodd" clip-rule="evenodd" d="M18 1C16.8954 1 16 1.89543 16 3V4C16 5.10457 16.8954 6 18 6H19C20.1046 6 21 5.10457 21 4V3C21 1.89543 20.1046 1 19 1H18ZM18.5 4.5C19.0523 4.5 19.5 4.05228 19.5 3.5C19.5 2.94772 19.0523 2.5 18.5 2.5C17.9477 2.5 17.5 2.94772 17.5 3.5C17.5 4.05228 17.9477 4.5 18.5 4.5Z" fill="#0F0F0F"/>
<path fill-rule="evenodd" clip-rule="evenodd" d="M18 7C16.8954 7 16 7.89543 16 9V10C16 11.1046 16.8954 12 18 12H19C20.1046 12 21 11.1046 21 10V9C21 7.89543 20.1046 7 19 7H18ZM18.5 10.5C19.0523 10.5 19.5 10.0523 19.5 9.5C19.5 8.94772 19.0523 8.5 18.5 8.5C17.9477 8.5 17.5 8.94772 17.5 9.5C17.5 10.0523 17.9477 10.5 18.5 10.5Z" fill="#0F0F0F"/>
<path fill-rule="evenodd" clip-rule="evenodd" d="M18 13C16.8954 13 16 13.8954 16 15V16C16 17.1046 16.8954 18 18 18H19C20.1046 18 21 17.1046 21 16V15C21 13.8954 20.1046 13 19 13H18ZM18.5 16.5C19.0523 16.5 19.5 16.0523 19.5 15.5C19.5 14.9477 19.0523 14.5 18.5 14.5C17.9477 14.5 17.5 14.9477 17.5 15.5C17.5 16.0523 17.9477 16.5 18.5 16.5Z" fill="#0F0F0F"/>
</svg>