<?xml version="1.0" encoding="utf-8"?><!-- Uploaded to: SVG Repo, www.svgrepo.com, Generator: SVG Repo Mixer Tools -->
<svg width="800px" height="800px" viewBox="0 0 24 24" fill="none" xmlns="http://www.w3.org/2000/svg">
<path d="M6.53938 5.24714C5.63832 6.04812 5 7.27121 5 9.00007C5 9.55235 4.55228 10.0001 4 10.0001C3.44772 10.0001 3 9.55235 3 9.00007C3 6.72856 3.86168 4.95146 5.21062 3.75235C6.54116 2.5696 8.28694 1.99971 10 1.99976C11.7131 1.9998 13.4589 2.56978 14.7894 3.75254C16.1383 4.95166 17 6.72872 17 9.0001L17 12H20C20.5523 12 21 12.4477 21 13C21 13.5523 20.5523 14 20 14H17L17 16H20C20.5523 16 21 16.4477 21 17C21 17.5523 20.5523 18 20 18H17L17 21C17 21.5523 16.5523 22 16 22C15.4477 22 15 21.5523 15 21L15 18H12C11.4477 18 11 17.5523 11 17C11 16.4477 11.4477 16 12 16H15L15 14H12C11.4477 14 11 13.5523 11 13C11 12.4477 11.4477 12 12 12H15L15 9.0001C15 7.27141 14.3617 6.04833 13.4606 5.24732C12.5411 4.42994 11.2869 3.99979 9.99997 3.99976C8.71305 3.99972 7.45884 4.42981 6.53938 5.24714Z" fill="#0F0F0F"/>
</svg>