<?xml version="1.0" encoding="utf-8"?><!-- Uploaded to: SVG Repo, www.svgrepo.com, Generator: SVG Repo Mixer Tools -->
<svg width="800px" height="800px" viewBox="0 0 24 24" fill="none" xmlns="http://www.w3.org/2000/svg">
<path fill-rule="evenodd" clip-rule="evenodd" d="M12 23C18.0751 23 23 18.0751 23 12C23 5.92487 18.0751 1 12 1C5.92487 1 1 5.92487 1 12C1 18.0751 5.92487 23 12 23ZM3.11735 13.414C3.0446 12.9533 3.00683 12.4811 3.00683 12C3.00683 7.92975 5.71082 4.49105 9.42045 3.38225C9.26876 4.1948 8.92119 4.82883 8.56392 5.48056C8.49846 5.59998 8.43262 5.72008 8.36765 5.84191C8.11741 6.3111 7.8125 6.92968 7.8125 7.63281C7.8125 8.40645 8.16953 9.08375 8.79289 9.70711C9.47791 10.3921 9.61869 10.9399 9.77777 11.5589C9.80021 11.6462 9.823 11.7349 9.84774 11.8256C9.9509 12.2039 10.1151 12.7168 10.5507 13.1524C10.9866 13.5883 11.5772 13.8352 12.3039 13.9806C14.5643 14.4327 15.27 15.276 15.6056 15.9472C15.6352 16.0065 15.6909 16.2077 15.7213 16.6337C15.7495 17.0287 15.75 17.4906 15.75 18V18.0209C15.75 18.5058 15.75 19.0355 15.7838 19.5087C15.7976 19.702 15.8183 19.9137 15.855 20.1274C14.9439 20.5603 13.9484 20.8445 12.9 20.9487C12.8003 20.4939 12.6154 20.0705 12.3 19.65C11.8228 19.0138 11.0709 18.4282 10.1 17.7C9.84017 17.5051 9.76955 17.3242 9.74598 17.1091C9.71395 16.8166 9.7722 16.4839 9.86464 15.965L9.87042 15.9326C9.94741 15.5014 10.0634 14.8519 9.91598 14.2343C9.73457 13.4741 9.21019 12.9071 8.37139 12.5715C6.79661 11.9416 5.08866 12.472 3.95556 12.9878C3.65093 13.1265 3.36866 13.2729 3.11735 13.414ZM3.67505 15.4081C4.86529 18.3124 7.53119 20.4558 10.7402 20.9056C10.4744 20.5227 9.98152 20.1111 8.9 19.3C8.15983 18.7449 7.83633 18.0431 7.75787 17.3268C7.69302 16.7348 7.80144 16.1354 7.87812 15.7115L7.89565 15.6142C7.98731 15.0997 8.00826 14.8563 7.9706 14.6985L7.96922 14.6918C7.96193 14.6543 7.94243 14.554 7.6286 14.4285C6.85633 14.1196 5.81428 14.3392 4.78415 14.8081C4.35219 15.0047 3.96855 15.2241 3.67505 15.4081ZM12 3.00683C11.8255 3.00683 11.6522 3.0118 11.4802 3.0216C11.3622 4.56477 10.7424 5.68086 10.3067 6.46524C10.2441 6.57794 10.1853 6.6838 10.1324 6.78309C9.88258 7.2514 9.8125 7.47657 9.8125 7.63281C9.8125 7.71855 9.83047 7.91625 10.2071 8.29289C11.2928 9.37855 11.5515 10.4075 11.7187 11.0724C11.7391 11.1537 11.7582 11.2295 11.7773 11.2994C11.8616 11.6086 11.9162 11.6895 11.9649 11.7382C12.0134 11.7867 12.1728 11.9148 12.6961 12.0194C15.4357 12.5673 16.73 13.724 17.3944 15.0528C17.6148 15.4935 17.6841 16.0423 17.7162 16.4913C17.75 16.9645 17.75 17.4942 17.75 17.9792V18C17.75 18.3238 17.7502 18.6284 17.7576 18.9088C19.735 17.2591 20.9932 14.7765 20.9932 12C20.9932 11.8662 20.9902 11.733 20.9845 11.6006C20.2535 11.6212 19.6814 11.3344 19.2306 11.1084C18.5139 10.7494 17.8137 10.5 17 10.5C16.2483 10.5 15.6108 10.35 15.102 9.98256C14.5938 9.61549 14.3483 9.12594 14.1965 8.74639C14.11 8.52998 14.0455 8.35024 13.991 8.19815C13.8293 7.74679 13.7545 7.5382 13.4453 7.33205C12.9178 6.98037 12.5083 6.49222 12.4492 5.82227C12.3986 5.24927 12.6363 4.74129 12.7931 4.42778C12.8619 4.29017 12.9292 4.16168 12.9929 4.03999C13.1683 3.70495 13.3183 3.41848 13.4087 3.11652C12.9497 3.04432 12.4792 3.00683 12 3.00683ZM20.6571 9.55597C20.5134 9.50863 20.3335 9.42369 20.0722 9.29307L20.0672 9.29057C19.4072 8.96054 18.4861 8.5 17 8.5C16.5017 8.5 16.3267 8.4 16.273 8.36119C16.2187 8.32201 16.1517 8.24906 16.0535 8.00361C16.03 7.94484 16.0042 7.8672 15.9737 7.77553C15.8013 7.25678 15.4779 6.28341 14.5547 5.66795C14.408 5.57017 14.5089 5.46824 14.5819 5.32222C14.6169 5.25224 14.6606 5.17129 14.7098 5.08013C14.8964 4.73435 15.1623 4.24166 15.333 3.64469C17.9082 4.67287 19.8967 6.8571 20.6571 9.55597Z" fill="#0F0F0F"/>
</svg>