<?xml version="1.0" encoding="utf-8"?><!-- Uploaded to: SVG Repo, www.svgrepo.com, Generator: SVG Repo Mixer Tools -->
<svg width="800px" height="800px" viewBox="0 0 24 24" fill="none" xmlns="http://www.w3.org/2000/svg">
<path d="M8.5 11C9.32843 11 10 10.3284 10 9.5C10 8.67157 9.32843 8 8.5 8C7.67157 8 7 8.67157 7 9.5C7 10.3284 7.67157 11 8.5 11Z" fill="#0F0F0F"/>
<path d="M17 9.5C17 10.3284 16.3284 11 15.5 11C14.6716 11 14 10.3284 14 9.5C14 8.67157 14.6716 8 15.5 8C16.3284 8 17 8.67157 17 9.5Z" fill="#0F0F0F"/>
<path d="M8 15C7.44771 15 7 15.4477 7 16C7 16.5523 7.44771 17 8 17H15.9993C16.5516 17 17 16.5523 17 16C17 15.4477 16.5523 15 16 15H8Z" fill="#0F0F0F"/>
<path fill-rule="evenodd" clip-rule="evenodd" d="M12 23C18.0751 23 23 18.0751 23 12C23 5.92487 18.0751 1 12 1C5.92487 1 1 5.92487 1 12C1 18.0751 5.92487 23 12 23ZM3.00683 12C3.00683 10.1496 3.56567 8.42976 4.52377 7H19.4762C20.4343 8.42976 20.9932 10.1496 20.9932 12H3.00683ZM20.77 14C19.8606 18.0042 16.2794 20.9932 12 20.9932C7.72062 20.9932 4.13935 18.0042 3.23002 14H20.77ZM12 3.00683C14.1386 3.00683 16.1029 3.75334 17.6465 5H6.35353C7.89709 3.75334 9.86137 3.00683 12 3.00683Z" fill="#0F0F0F"/>
</svg>