<?xml version="1.0" encoding="utf-8"?><!-- Uploaded to: SVG Repo, www.svgrepo.com, Generator: SVG Repo Mixer Tools -->
<svg width="800px" height="800px" viewBox="0 0 24 24" fill="none" xmlns="http://www.w3.org/2000/svg">
<path d="M10 9.5C10 10.3284 9.32843 11 8.5 11C7.67157 11 7 10.3284 7 9.5C7 8.67157 7.67157 8 8.5 8C9.32843 8 10 8.67157 10 9.5Z" fill="#0F0F0F"/>
<path d="M15.5 11C16.3284 11 17 10.3284 17 9.5C17 8.67157 16.3284 8 15.5 8C14.6716 8 14 8.67157 14 9.5C14 10.3284 14.6716 11 15.5 11Z" fill="#0F0F0F"/>
<path d="M14.4338 15.1987C13.8713 15.0112 13.0567 15 12 15C11.4477 15 11 14.5523 11 14C11 13.4477 11.4477 13 12 13L12.0946 13C13.0217 12.9996 14.1598 12.9992 15.0662 13.3013C15.5636 13.4671 16.0695 13.7463 16.4456 14.2298C16.8284 14.722 17 15.3271 17 16C17 16.5523 16.5523 17 16 17C15.4477 17 15 16.5523 15 16C15 15.6729 14.9216 15.528 14.8669 15.4577C14.8055 15.3787 14.6864 15.2829 14.4338 15.1987Z" fill="#0F0F0F"/>
<path d="M8.5 12C8 12 7 14 7 14.5C7 15 7.5 16 8.5 16C9.5 16 10 15 10 14.5C10 14 9 12 8.5 12Z" fill="#0F0F0F"/>
<path fill-rule="evenodd" clip-rule="evenodd" d="M23 12C23 18.0751 18.0751 23 12 23C5.92487 23 1 18.0751 1 12C1 5.92487 5.92487 1 12 1C18.0751 1 23 5.92487 23 12ZM3.00683 12C3.00683 16.9668 7.03321 20.9932 12 20.9932C16.9668 20.9932 20.9932 16.9668 20.9932 12C20.9932 7.03321 16.9668 3.00683 12 3.00683C7.03321 3.00683 3.00683 7.03321 3.00683 12Z" fill="#0F0F0F"/>
</svg>