<?xml version="1.0" encoding="utf-8"?><!-- Uploaded to: SVG Repo, www.svgrepo.com, Generator: SVG Repo Mixer Tools -->
<svg width="800px" height="800px" viewBox="0 0 24 24" fill="none" xmlns="http://www.w3.org/2000/svg">
<path d="M11 16C11 16.5523 10.5523 17 10 17C9.44772 17 9 16.5523 9 16C9 15.4477 9.44772 15 10 15C10.5523 15 11 15.4477 11 16Z" fill="#0F0F0F"/>
<path d="M14 19C14.5523 19 15 18.5523 15 18C15 17.4477 14.5523 17 14 17C13.4477 17 13 17.4477 13 18C13 18.5523 13.4477 19 14 19Z" fill="#0F0F0F"/>
<path fill-rule="evenodd" clip-rule="evenodd" d="M7 2C7 1.44772 7.44772 1 8 1H16C16.5523 1 17 1.44772 17 2C17 2.55228 16.5523 3 16 3H15V8.74788L20.6899 19.3148C21.5867 20.9803 20.3804 23 18.4887 23H5.51133C3.61964 23 2.4133 20.9803 3.31015 19.3148L9 8.74788V3H8C7.44772 3 7 2.55228 7 2ZM11 3H13V9.25212L13.9412 11H10.0588L11 9.25212V3ZM8.98191 13L5.07109 20.263C4.89172 20.5961 5.13299 21 5.51133 21H18.4887C18.867 21 19.1083 20.5961 18.9289 20.263L15.0181 13H8.98191Z" fill="#0F0F0F"/>
</svg>