<?xml version="1.0" encoding="utf-8"?><!-- Uploaded to: SVG Repo, www.svgrepo.com, Generator: SVG Repo Mixer Tools -->
<svg width="800px" height="800px" viewBox="0 0 24 24" fill="none" xmlns="http://www.w3.org/2000/svg">
<path d="M20.53 7.34822C20.0618 7.64077 19.4453 7.49865 19.1524 7.03084C19.0357 6.85333 18.905 6.68488 18.7695 6.52151C18.4985 6.1949 18.0945 5.76329 17.5678 5.34742C16.5152 4.51631 15.0206 3.78159 13.1104 3.99385C11.1002 4.21723 9.46561 5.10164 8.32821 6.45571C7.73245 7.16497 7.26033 8.0187 6.9452 8.99998H12C12.5523 8.99998 13 9.44769 13 9.99998C13 10.5523 12.5523 11 12 11H6.54506C6.51528 11.324 6.5 11.6576 6.5 12.0003C6.5 12.3428 6.51526 12.6761 6.545 13H12C12.5523 13 13 13.4477 13 14C13 14.5523 12.5523 15 12 15H6.945C7.26013 15.9815 7.73232 16.8353 8.32819 17.5447C9.46556 18.8986 11.1001 19.7829 13.1104 20.0063C15.0636 20.2233 16.5779 19.5773 17.6228 18.8624C18.1473 18.5035 18.5477 18.1306 18.8145 17.85C18.9457 17.7121 19.0755 17.5696 19.1884 17.4159C19.5101 16.9691 20.1328 16.8662 20.5812 17.1865C21.0257 17.504 21.1302 18.1392 20.8126 18.5831C20.648 18.8122 20.4577 19.0245 20.2636 19.2285C19.9211 19.5886 19.4152 20.0593 18.7522 20.513C17.4221 21.423 15.4364 22.277 12.8896 21.994C10.3999 21.7174 8.28443 20.602 6.79681 18.8311C5.89323 17.7554 5.23859 16.4592 4.86466 15H2C1.44771 15 1 14.5523 1 14C1 13.4477 1.44772 13 2 13H4.53804C4.51277 12.6724 4.5 12.339 4.5 12.0003C4.5 11.6614 4.51279 11.3277 4.53809 11H2C1.44771 11 1 10.5523 1 9.99998C1 9.44769 1.44772 8.99998 2 8.99998H4.86482C5.23877 7.54101 5.89335 6.24489 6.79679 5.16934C8.28439 3.39834 10.3998 2.28275 12.8896 2.00608C15.4794 1.71829 17.4848 2.73369 18.8072 3.7777C19.4679 4.2994 19.9703 4.83661 20.3086 5.24442C20.5005 5.47561 20.6854 5.715 20.847 5.96861C21.1364 6.43079 20.9927 7.05904 20.53 7.34822Z" fill="#0F0F0F"/>
</svg>