<?xml version="1.0" encoding="utf-8"?><!-- Uploaded to: SVG Repo, www.svgrepo.com, Generator: SVG Repo Mixer Tools -->
<svg width="800px" height="800px" viewBox="0 0 24 24" fill="none" xmlns="http://www.w3.org/2000/svg">
<path d="M6.99999 15C6.4477 15 5.99999 15.4477 5.99999 16C5.99999 16.5523 6.4477 17 6.99999 17C7.55227 17 7.99999 16.5523 7.99999 16C7.99999 15.4477 7.55227 15 6.99999 15Z" fill="#0F0F0F"/>
<path d="M8.99999 16C8.99999 15.4477 9.4477 15 9.99999 15C10.5523 15 11 15.4477 11 16C11 16.5523 10.5523 17 9.99999 17C9.4477 17 8.99999 16.5523 8.99999 16Z" fill="#0F0F0F"/>
<path d="M13 15C12.4477 15 12 15.4477 12 16C12 16.5523 12.4477 17 13 17C13.5523 17 14 16.5523 14 16C14 15.4477 13.5523 15 13 15Z" fill="#0F0F0F"/>
<path d="M15 16C15 15.4477 15.4477 15 16 15C16.5523 15 17 15.4477 17 16C17 16.5523 16.5523 17 16 17C15.4477 17 15 16.5523 15 16Z" fill="#0F0F0F"/>
<path d="M6.99999 10C6.99999 9.44771 7.4477 9 7.99999 9C8.55227 9 8.99999 9.44771 8.99999 10C8.99999 10.5523 8.55227 11 7.99999 11C7.4477 11 6.99999 10.5523 6.99999 10Z" fill="#0F0F0F"/>
<path d="M11 9C10.4477 9 9.99999 9.44771 9.99999 10C9.99999 10.5523 10.4477 11 11 11C11.5523 11 12 10.5523 12 10C12 9.44771 11.5523 9 11 9Z" fill="#0F0F0F"/>
<path d="M13 10C13 9.44771 13.4477 9 14 9C14.5523 9 15 9.44771 15 10C15 10.5523 14.5523 11 14 11C13.4477 11 13 10.5523 13 10Z" fill="#0F0F0F"/>
<path fill-rule="evenodd" clip-rule="evenodd" d="M6.99999 1C6.4477 1 5.99999 1.44772 5.99999 2C5.99999 2.55228 6.4477 3 6.99999 3H7.99999C8.55227 3 8.99999 3.44771 8.99999 4V6H6.99999C5.34313 6 3.99999 7.34314 3.99999 9V12H3.15302C1.93593 12 1.001 13.078 1.17312 14.2828L1.97949 19.9276C1.84633 20.0154 1.71913 20.1041 1.59932 20.1913C1.22226 20.4655 0.899513 20.7375 0.67156 20.9401C0.557015 21.0419 0.464981 21.1275 0.400428 21.1888C-0.020416 21.5882 -0.152235 22.262 0.29288 22.7071C0.73349 23.1477 1.36246 23.0331 1.77728 22.6394C1.82796 22.5913 1.9039 22.5206 2.00029 22.4349C2.19421 22.2625 2.46521 22.0345 2.77566 21.8087C3.08893 21.5809 3.42378 21.369 3.7461 21.2173C4.0789 21.0607 4.33204 21 4.49999 21C4.7011 21 4.79756 21.2619 4.88864 21.4083C5.14301 21.8164 5.41563 22.2092 5.81025 22.4962C6.26146 22.8244 6.81824 23 7.49999 23C8.65326 23 9.62462 22.4528 10.5547 21.832C11.337 21.3105 11.8456 21 12.5 21C12.6678 21 12.7632 21.0211 12.8115 21.0368C12.9904 21.0951 13.0485 21.3325 13.1238 21.4838C13.238 21.7137 13.4422 22.1247 13.8179 22.4468C14.2583 22.8242 14.8205 23 15.5 23C16.8178 23 17.9173 22.3405 18.7116 21.8517L18.8942 21.7389C19.2414 21.5243 19.5272 21.3476 19.807 21.2106C20.128 21.0533 20.3434 21 20.5 21C20.8036 21 21.1747 21.2183 21.5599 21.6585C21.7341 21.8576 21.8748 22.0615 21.9723 22.2175C22.0444 22.3328 22.0896 22.4168 22.103 22.4424L22.1061 22.4482C22.3534 22.9415 22.9536 23.1412 23.4472 22.8944C24.0084 22.6138 24.1115 21.9401 23.829 21.4297C23.7912 21.3615 23.7374 21.268 23.6683 21.1575C23.5315 20.9385 23.3283 20.6424 23.0651 20.3415C22.6166 19.829 21.842 19.1303 20.796 19.0161L22.7422 14.8458C23.361 13.5198 22.3931 12 20.9298 12H18.8822L17.4185 7.97477C16.9874 6.7892 15.8607 6 14.5991 6H11V4C11 2.34315 9.65684 1 7.99999 1H6.99999ZM18.2203 19.806L20.9298 14H3.15302L3.87693 19.0675C4.07928 19.0251 4.28813 19 4.49999 19C5.14104 19 5.63707 19.2304 6.01283 19.5911C6.2823 19.8498 6.48608 20.1843 6.61006 20.3878C6.7155 20.5609 6.81995 20.7576 6.9866 20.8788C7.05102 20.9256 7.18174 21 7.49999 21C8.15436 21 8.66302 20.6895 9.44529 20.1679C10.3754 19.5472 11.3467 19 12.5 19C13.1795 19 13.7416 19.1758 14.182 19.5532C14.5578 19.8753 14.762 20.2862 14.8762 20.5162C14.943 20.6504 15.0028 20.8282 15.1195 20.9282C15.1387 20.9446 15.1824 21 15.5 21C16.1821 21 16.8327 20.6595 17.6634 20.1483C17.7169 20.1154 17.7718 20.0814 17.8277 20.0468C17.9536 19.9688 18.0856 19.887 18.2203 19.806ZM6.99999 8C6.4477 8 5.99999 8.44771 5.99999 9V12H16.7541L15.5389 8.65826C15.3952 8.26307 15.0196 8 14.5991 8H6.99999Z" fill="#0F0F0F"/>
</svg>