<?xml version="1.0" encoding="utf-8"?><!-- Uploaded to: SVG Repo, www.svgrepo.com, Generator: SVG Repo Mixer Tools -->
<svg width="800px" height="800px" viewBox="0 0 24 24" fill="none" xmlns="http://www.w3.org/2000/svg">
<path d="M1 4C1 2.34315 2.34315 1 4 1H7.76393C8.90025 1 9.93904 1.64201 10.4472 2.65836L11.3416 4.44721C11.511 4.786 11.8573 5 12.2361 5H20C21.6569 5 23 6.34315 23 8V13.101C22.4259 12.5151 21.7496 12.0297 21 11.6736V8C21 7.44772 20.5523 7 20 7H12.2361C11.0998 7 10.061 6.35799 9.55279 5.34164L8.65836 3.55279C8.48897 3.214 8.1427 3 7.76393 3H4C3.44772 3 3 3.44772 3 4V20C3 20.5523 3.44772 21 4 21H11.6736C12.0297 21.7496 12.5151 22.4259 13.101 23H4C2.34315 23 1 21.6569 1 20V4Z" fill="#0F0F0F"/>
<path fill-rule="evenodd" clip-rule="evenodd" d="M24 18C24 21.3137 21.3137 24 18 24C14.6863 24 12 21.3137 12 18C12 14.6863 14.6863 12 18 12C21.3137 12 24 14.6863 24 18ZM13.9819 18C13.9819 20.2191 15.7809 22.0181 18 22.0181C18.7468 22.0181 19.4461 21.8143 20.0452 21.4594L14.5406 15.9548C14.1857 16.5539 13.9819 17.2532 13.9819 18ZM22.0181 18C22.0181 18.7468 21.8143 19.4461 21.4594 20.0451L15.9549 14.5406C16.5539 14.1857 17.2532 13.9819 18 13.9819C20.2191 13.9819 22.0181 15.7809 22.0181 18Z" fill="#0F0F0F"/>
</svg>