<?xml version="1.0" encoding="utf-8"?><!-- Uploaded to: SVG Repo, www.svgrepo.com, Generator: SVG Repo Mixer Tools -->
<svg width="800px" height="800px" viewBox="0 0 24 24" fill="none" xmlns="http://www.w3.org/2000/svg">
<path d="M8 14C8 14.5523 8.44771 15 9 15H15C15.5523 15 16 14.5523 16 14C16 13.4477 15.5523 13 15 13H9C8.44771 13 8 13.4477 8 14Z" fill="#0F0F0F"/>
<path fill-rule="evenodd" clip-rule="evenodd" d="M4 1C2.34315 1 1 2.34315 1 4V20C1 21.6569 2.34315 23 4 23H20C21.6569 23 23 21.6569 23 20V8C23 6.34315 21.6569 5 20 5H12.2361C11.8573 5 11.511 4.786 11.3416 4.44721L10.4472 2.65836C9.93904 1.64201 8.90025 1 7.76393 1H4ZM3 4C3 3.44772 3.44772 3 4 3H7.76393C8.1427 3 8.48897 3.214 8.65836 3.55279L9.55279 5.34164C10.061 6.35799 11.0998 7 12.2361 7H20C20.5523 7 21 7.44772 21 8V20C21 20.5523 20.5523 21 20 21H4C3.44772 21 3 20.5523 3 20V4Z" fill="#0F0F0F"/>
</svg>