<?xml version="1.0" encoding="utf-8"?><!-- Uploaded to: SVG Repo, www.svgrepo.com, Generator: SVG Repo Mixer Tools -->
<svg width="800px" height="800px" viewBox="0 0 24 24" fill="none" xmlns="http://www.w3.org/2000/svg">
<path d="M20 3C20 2.44772 19.5523 2 19 2L8 2C6.34315 2 5 3.34315 5 5V14H3C2.44772 14 2 14.4477 2 15C2 15.5523 2.44772 16 3 16H5V21C5 21.5523 5.44772 22 6 22C6.55229 22 7 21.5523 7 21V16H11C11.5523 16 12 15.5523 12 15C12 14.4477 11.5523 14 11 14H7V11H17C17.5523 11 18 10.5523 18 10C18 9.44772 17.5523 9 17 9L7 9V5C7 4.44772 7.44772 4 8 4L19 4C19.5523 4 20 3.55229 20 3Z" fill="#0F0F0F"/>
</svg>