<?xml version="1.0" encoding="utf-8"?><!-- Uploaded to: SVG Repo, www.svgrepo.com, Generator: SVG Repo Mixer Tools -->
<svg width="800px" height="800px" viewBox="0 0 24 24" fill="none" xmlns="http://www.w3.org/2000/svg">
<path d="M10 9C10 8.44754 10.4476 8 10.9997 8H13C13.5071 8 13.7898 8.16249 13.9378 8.28087C14.0486 8.36952 14.1077 8.45538 14.119 8.4731C14.3737 8.94812 14.962 9.13706 15.4472 8.89443C15.9309 8.65259 16.1361 8.03372 15.8934 7.55064C15.8385 7.44247 15.7711 7.34069 15.6984 7.24375C15.5859 7.09376 15.4194 6.90487 15.1872 6.71913C14.7102 6.33751 13.9929 6 13 6H10.9997C9.34271 6 8 7.34332 8 9V14.9999C8 16.6566 9.34275 17.9999 10.9998 17.9999L13 17.9999C13.9929 18 14.7101 17.6625 15.1872 17.2809C15.4194 17.0951 15.5859 16.9062 15.6984 16.7563C15.8643 16.5352 16 16.2767 16 16V13C16 12.4477 15.5523 12 15 12H13C12.4477 12 12 12.4477 12 13C12 13.5523 12.4477 14 13 14H14V15.6652C13.734 15.9156 13.3561 16 13 15.9999L10.9998 15.9999C10.4476 15.9999 10 15.5524 10 14.9999V9Z" fill="#0F0F0F"/>
<path fill-rule="evenodd" clip-rule="evenodd" d="M20 1C21.6569 1 23 2.34315 23 4V20C23 21.6569 21.6569 23 20 23H4C2.34315 23 1 21.6569 1 20V4C1 2.34315 2.34315 1 4 1H20ZM20 3C20.5523 3 21 3.44772 21 4V20C21 20.5523 20.5523 21 20 21H4C3.44772 21 3 20.5523 3 20V4C3 3.44772 3.44772 3 4 3H20Z" fill="#0F0F0F"/>
</svg>