<?xml version="1.0" encoding="utf-8"?><!-- Uploaded to: SVG Repo, www.svgrepo.com, Generator: SVG Repo Mixer Tools -->
<svg width="800px" height="800px" viewBox="0 0 24 24" fill="none" xmlns="http://www.w3.org/2000/svg">
<path fill-rule="evenodd" clip-rule="evenodd" d="M22.6767 1.33707C22.2865 0.946887 21.6539 0.946888 21.2637 1.33707L9.74788 12.8529C9.7071 12.8937 9.67058 12.9371 9.63833 12.9826C8.74832 12.3632 7.66658 12 6.5 12C3.46243 12 1 14.4624 1 17.5C1 20.5375 3.46243 23 6.5 23C9.53757 23 12 20.5375 12 17.5C12 16.3403 11.6411 15.2645 11.0283 14.3775C11.0749 14.3447 11.1192 14.3075 11.1609 14.2659L16.5062 8.92052L19.3096 11.7239C19.7001 12.1144 20.3333 12.1144 20.7238 11.7239C21.1143 11.3333 21.1143 10.7002 20.7238 10.3097L17.9205 7.5063L19.5062 5.92052L20.7764 7.19064C21.1669 7.58117 21.8001 7.58117 22.1906 7.19064C22.5811 6.80012 22.5811 6.16695 22.1906 5.77643L20.9205 4.5063L22.6767 2.75005C23.0669 2.35987 23.0669 1.72726 22.6767 1.33707ZM6.5 20.9791C4.57855 20.9791 3.02092 19.4214 3.02092 17.5C3.02092 15.5785 4.57855 14.0209 6.5 14.0209C8.42145 14.0209 9.97908 15.5785 9.97908 17.5C9.97908 19.4214 8.42145 20.9791 6.5 20.9791Z" fill="#0F0F0F"/>
</svg>