<?xml version="1.0" encoding="utf-8"?><!-- Uploaded to: SVG Repo, www.svgrepo.com, Generator: SVG Repo Mixer Tools -->
<svg width="800px" height="800px" viewBox="0 0 24 24" fill="none" xmlns="http://www.w3.org/2000/svg">
<path fill-rule="evenodd" clip-rule="evenodd" d="M12 20.0002L12.988 20.1546L12.9949 20.1111L13.0159 19.9799C13.0345 19.8645 13.0623 19.6946 13.0986 19.4779C13.1711 19.0444 13.2777 18.4242 13.4135 17.6796C13.5063 17.1706 13.6125 16.6042 13.7307 16.0002H20.2693C20.3875 16.6042 20.4937 17.1706 20.5865 17.6796C20.7222 18.4242 20.8288 19.0444 20.9014 19.4779C20.9377 19.6946 20.9655 19.8645 20.9841 19.9799L21.0051 20.1111L21.0119 20.1542C21.0972 20.6998 21.6087 21.0735 22.1544 20.9883C22.7 20.903 23.0733 20.3915 22.988 19.8459L22 20.0002C22.988 19.8459 22.988 19.8461 22.988 19.8459L22.9878 19.8448L22.9875 19.8424L22.986 19.8331L22.9804 19.7975L22.9585 19.6612C22.9393 19.5422 22.9109 19.3684 22.874 19.1476C22.8001 18.7061 22.6918 18.0763 22.5541 17.3209C22.279 15.8115 21.885 13.794 21.4111 11.7721C20.9394 9.75949 20.3797 7.70399 19.7674 6.13639C19.4636 5.35879 19.1265 4.64711 18.7506 4.11257C18.4219 3.64498 17.847 3.00024 17 3.00024C16.153 3.00024 15.5781 3.64498 15.2493 4.11257C14.8735 4.64711 14.5364 5.35879 14.2326 6.13639C13.6203 7.70399 13.0606 9.75949 12.5889 11.7721C12.115 13.794 11.721 15.8115 11.4459 17.3209C11.3082 18.0763 11.1999 18.7061 11.126 19.1476C11.0891 19.3684 11.0607 19.5422 11.0415 19.6612L11.0196 19.7975L11.0121 19.8448C11.0121 19.845 11.012 19.8459 12 20.0002ZM19.4639 12.2284C19.6033 12.8231 19.7357 13.4182 19.8603 14.0002H14.1397C14.2642 13.4182 14.3967 12.8231 14.5361 12.2284C15.0019 10.241 15.536 8.2965 16.0955 6.86409C16.3777 6.1417 16.646 5.60338 16.8854 5.26292C16.9292 5.20069 16.9674 5.15135 17 5.1124C17.0326 5.15135 17.0708 5.20069 17.1146 5.26292C17.354 5.60338 17.6223 6.1417 17.9045 6.86409C18.464 8.2965 18.9981 10.241 19.4639 12.2284Z" fill="#0F0F0F"/>
<path d="M12 20.0002L12.988 20.1546C12.9028 20.7002 12.3913 21.0735 11.8456 20.9883C11.3 20.903 10.9267 20.3915 11.012 19.8459L12 20.0002Z" fill="#0F0F0F"/>
<path fill-rule="evenodd" clip-rule="evenodd" d="M1.85166 20.9892C2.39782 21.0711 2.90699 20.6948 2.98893 20.1486L2.98985 20.1425L2.99293 20.1222L3.00541 20.0411C3.0165 19.9696 3.03305 19.864 3.05471 19.7292C3.09804 19.4596 3.16172 19.0736 3.24284 18.6101C3.27631 18.4189 3.3127 18.2147 3.35181 18.0002H6.64818C6.68729 18.2147 6.72368 18.4189 6.75715 18.6101C6.83827 19.0736 6.90196 19.4596 6.94528 19.7292C6.96694 19.864 6.9835 19.9696 6.99459 20.0411L7.00707 20.1222L7.01014 20.1425L7.01103 20.1484C7.09296 20.6946 7.60216 21.0711 8.14834 20.9892C8.69451 20.9072 9.07086 20.3981 8.98893 19.8519L8 20.0002C8.98893 19.8519 8.98896 19.852 8.98893 19.8519L8.98423 19.8209L8.97098 19.7348C8.95937 19.6598 8.94223 19.5506 8.91994 19.4119C8.87538 19.1346 8.81016 18.7393 8.72722 18.2654C8.56158 17.3188 8.32411 16.0519 8.03811 14.7807C7.75415 13.5187 7.41411 12.2149 7.03789 11.2116C6.85219 10.7164 6.63807 10.2403 6.38842 9.87046C6.26345 9.68533 6.10297 9.48644 5.89802 9.32569C5.68988 9.16244 5.38463 9.00024 5 9.00024C4.61536 9.00024 4.31012 9.16244 4.10197 9.32569C3.89702 9.48644 3.73654 9.68533 3.61158 9.87046C3.36192 10.2403 3.14781 10.7164 2.9621 11.2116C2.58588 12.2149 2.24584 13.5187 1.96189 14.7807C1.67588 16.0519 1.43842 17.3188 1.27278 18.2654C1.18983 18.7393 1.12461 19.1346 1.08005 19.4119C1.05776 19.5506 1.04063 19.6598 1.02901 19.7348L1.01576 19.8209L1.01117 19.8512C1.01115 19.8513 1.01106 19.8519 2 20.0002L1.01117 19.8512C0.929246 20.3973 1.30548 20.9072 1.85166 20.9892ZM6.25669 16.0002C6.20228 15.7419 6.1456 15.4807 6.08689 15.2198C5.80834 13.9818 5.49213 12.7856 5.16523 11.9139C5.10799 11.7612 5.05273 11.6249 5 11.5045C4.94726 11.6249 4.89201 11.7612 4.83476 11.9139C4.50786 12.7856 4.19165 13.9818 3.91311 15.2198C3.85439 15.4807 3.79771 15.7419 3.7433 16.0002H6.25669Z" fill="#0F0F0F"/>
</svg>