<?xml version="1.0" encoding="utf-8"?><!-- Uploaded to: SVG Repo, www.svgrepo.com, Generator: SVG Repo Mixer Tools -->
<svg width="800px" height="800px" viewBox="0 0 24 24" fill="none" xmlns="http://www.w3.org/2000/svg">
<path d="M10.6915 0.293087C10.301 -0.0976958 9.66782 -0.0976956 9.2773 0.293087L6.28142 3.29095C5.89088 3.68175 5.8909 4.31536 6.28145 4.70613L9.28398 7.71034C9.67451 8.10113 10.3077 8.10113 10.6982 7.71034C11.0887 7.31956 11.0887 6.68598 10.6982 6.2952L9.39129 4.98743L17 4.98743C17.5523 4.98743 18 4.53942 18 3.98677C18 3.43412 17.5523 2.98611 17 2.98611L9.41449 2.9861L10.6915 1.70824C11.082 1.31745 11.082 0.683869 10.6915 0.293087Z" fill="#0F0F0F"/>
<path fill-rule="evenodd" clip-rule="evenodd" d="M12 20.998C9.79086 20.998 8 19.206 8 16.9954C8 14.7848 9.79086 12.9927 12 12.9927C14.2091 12.9927 16 14.7848 16 16.9954C16 19.206 14.2091 20.998 12 20.998ZM12 19.0934C13.158 19.0934 14.0967 18.1541 14.0967 16.9954C14.0967 15.8366 13.158 14.8973 12 14.8973C10.842 14.8973 9.90331 15.8366 9.90331 16.9954C9.90331 18.1541 10.842 19.0934 12 19.0934Z" fill="#0F0F0F"/>
<path d="M17 16.9954C17 17.548 17.4477 17.996 18 17.996C18.5523 17.996 19 17.548 19 16.9954C19 16.4427 18.5523 15.9947 18 15.9947C17.4477 15.9947 17 16.4427 17 16.9954Z" fill="#0F0F0F"/>
<path d="M5 16.9954C5 17.548 5.44772 17.996 6 17.996C6.55228 17.996 7 17.548 7 16.9954C7 16.4427 6.55228 15.9947 6 15.9947C5.44772 15.9947 5 16.4427 5 16.9954Z" fill="#0F0F0F"/>
<path fill-rule="evenodd" clip-rule="evenodd" d="M3 9.99074C1.34315 9.99074 0 11.3348 0 12.9927V20.998C0 22.656 1.34315 24 3 24H21C22.6569 24 24 22.656 24 20.998V12.9927C24 11.3348 22.6569 9.99074 21 9.99074H3ZM20 11.9921H4C4 12.2549 3.94827 12.5151 3.84776 12.7579C3.74725 13.0007 3.59993 13.2214 3.41421 13.4072C3.2285 13.593 3.00802 13.7405 2.76537 13.841C2.52272 13.9416 2.26264 13.9934 2 13.9934V19.9974C2.26264 19.9974 2.52272 20.0491 2.76537 20.1497C3.00802 20.2503 3.2285 20.3977 3.41421 20.5835C3.59993 20.7694 3.74725 20.99 3.84776 21.2328C3.94827 21.4756 4 21.7359 4 21.9987H20C20 21.7359 20.0517 21.4756 20.1522 21.2328C20.2528 20.99 20.4001 20.7694 20.5858 20.5835C20.7715 20.3977 20.992 20.2503 21.2346 20.1497C21.4773 20.0491 21.7374 19.9974 22 19.9974V13.9934C21.7374 13.9934 21.4773 13.9416 21.2346 13.841C20.992 13.7405 20.7715 13.593 20.5858 13.4072C20.4001 13.2214 20.2528 13.0007 20.1522 12.7579C20.0517 12.5151 20 12.2549 20 11.9921Z" fill="#0F0F0F"/>
</svg>