<?xml version="1.0" encoding="utf-8"?><!-- Uploaded to: SVG Repo, www.svgrepo.com, Generator: SVG Repo Mixer Tools -->
<svg width="800px" height="800px" viewBox="0 0 24 24" fill="none" xmlns="http://www.w3.org/2000/svg">
<path fill-rule="evenodd" clip-rule="evenodd" d="M2.00002 4C2.00002 2.89543 2.89545 2 4.00002 2H6.00002C7.10459 2 8.00002 2.89543 8.00002 4L8.00037 13.0033C8.02172 13.5151 8.20359 14.0389 8.47302 14.47C8.90243 15.1571 9.81984 16 12 16C14.1802 16 15.0976 15.1571 15.527 14.47C15.7964 14.0389 15.9784 13.515 15.9997 13.0033L16 4C16 2.89543 16.8955 2 18 2H20C21.1046 2 22 2.89543 22 4L22 15.0015C21.9971 16.2784 21.4266 17.5979 20.675 18.6C19.3224 20.4035 16.744 22 12 22C7.25603 22 4.67765 20.4035 3.32503 18.6C2.57042 17.5939 2.00575 16.2832 2.00002 15.0032C1.99221 11.3355 2.00002 7.66772 2.00002 4ZM4.00002 14.9937C4.02211 15.8483 4.42187 16.7291 4.92503 17.4C5.8224 18.5965 7.74402 20 12 20C16.256 20 18.1776 18.5965 19.075 17.4C19.5781 16.7292 19.9781 15.8482 20 14.9937V8H18L18 13.0056C17.9932 13.8848 17.6843 14.7919 17.223 15.53C16.4024 16.8429 14.8198 18 12 18C9.18019 18 7.59761 16.8429 6.77702 15.53C6.31622 14.7927 6.0027 13.8805 6.00002 13.0013L6.00002 8H4.00002V14.9937ZM18 6H20V4H18V6ZM6.00002 4V6H4.00002V4H6.00002Z" fill="#0F0F0F"/>
</svg>