<?xml version="1.0" encoding="utf-8"?><!-- Uploaded to: SVG Repo, www.svgrepo.com, Generator: SVG Repo Mixer Tools -->
<svg width="800px" height="800px" viewBox="0 0 24 24" fill="none" xmlns="http://www.w3.org/2000/svg">
<path d="M9 9C8.44772 9 8 9.44772 8 10C8 10.5523 8.44772 11 9 11H15C15.5523 11 16 10.5523 16 10C16 9.44772 15.5523 9 15 9H9Z" fill="#0F0F0F"/>
<path fill-rule="evenodd" clip-rule="evenodd" d="M21.272 11.5818C22.5649 5.78816 18.0052 0.00354004 12 0.00354004C5.99649 0.00354004 1.43639 5.7961 2.72816 11.5825C3.72523 16.2821 7.7572 20.8465 10.1636 23.2269C11.1942 24.2463 12.8058 24.2463 13.8364 23.2269C16.2429 20.8464 20.2752 16.2816 21.272 11.5818ZM12 2.00354C16.7124 2.00354 20.3368 6.58981 19.32 11.1462C18.8316 13.3355 17.7359 15.3015 16.4501 17.119C15.1064 19.0184 13.5829 20.6644 12.4299 21.805C12.1786 22.0536 11.8214 22.0536 11.5701 21.805C10.4171 20.6645 8.89379 19.0186 7.55009 17.1193C6.26419 15.3017 5.16886 13.3361 4.68011 11.1467C3.66438 6.59682 7.29012 2.00354 12 2.00354Z" fill="#0F0F0F"/>
</svg>