<?xml version="1.0" encoding="utf-8"?><!-- Uploaded to: SVG Repo, www.svgrepo.com, Generator: SVG Repo Mixer Tools -->
<svg width="800px" height="800px" viewBox="0 0 24 24" fill="none" xmlns="http://www.w3.org/2000/svg">
<path d="M8 10C8 9.44772 8.44772 9 9 9H11V7C11 6.44772 11.4477 6 12 6C12.5523 6 13 6.44772 13 7V9H15C15.5523 9 16 9.44772 16 10C16 10.5523 15.5523 11 15 11H13V13C13 13.5523 12.5523 14 12 14C11.4477 14 11 13.5523 11 13V11H9C8.44772 11 8 10.5523 8 10Z" fill="#0F0F0F"/>
<path fill-rule="evenodd" clip-rule="evenodd" d="M12 0.00354004C18.0052 0.00354004 22.5649 5.78816 21.272 11.5818C20.2752 16.2816 16.2429 20.8464 13.8364 23.2269C12.8058 24.2463 11.1942 24.2463 10.1636 23.2269C7.7572 20.8465 3.72523 16.2821 2.72816 11.5825C1.43639 5.7961 5.99649 0.00354004 12 0.00354004ZM19.32 11.1462C20.3368 6.58981 16.7124 2.00354 12 2.00354C7.29012 2.00354 3.66438 6.59682 4.68011 11.1467C5.16886 13.3361 6.26419 15.3017 7.55009 17.1193C8.89379 19.0186 10.4171 20.6645 11.5701 21.805C11.8214 22.0536 12.1786 22.0536 12.4299 21.805C13.5829 20.6644 15.1064 19.0184 16.4501 17.119C17.7359 15.3015 18.8316 13.3355 19.32 11.1462Z" fill="#0F0F0F"/>
</svg>