<?xml version="1.0" encoding="utf-8"?><!-- Uploaded to: SVG Repo, www.svgrepo.com, Generator: SVG Repo Mixer Tools -->
<svg width="800px" height="800px" viewBox="0 0 24 24" fill="none" xmlns="http://www.w3.org/2000/svg">
<path d="M14.5 7.44993C14.5 8.83064 13.3807 9.94993 12 9.94993C10.6193 9.94993 9.5 8.83064 9.5 7.44993C9.5 6.06922 10.6193 4.94993 12 4.94993C13.3807 4.94993 14.5 6.06922 14.5 7.44993Z" fill="#0F0F0F"/>
<path d="M8.14079 13.1335C7.50579 14.0373 8.39542 15 9.49999 15H14.5C15.6046 15 16.4942 14.0373 15.8592 13.1335C15.2729 12.299 14.1501 11.5 12 11.5C9.84988 11.5 8.7271 12.299 8.14079 13.1335Z" fill="#0F0F0F"/>
<path fill-rule="evenodd" clip-rule="evenodd" d="M12 0.00354004C18.0052 0.00354004 22.5649 5.78816 21.272 11.5818C20.2752 16.2816 16.2429 20.8464 13.8364 23.2269C12.8058 24.2463 11.1942 24.2463 10.1636 23.2269C7.7572 20.8465 3.72523 16.2821 2.72816 11.5825C1.43639 5.7961 5.99649 0.00354004 12 0.00354004ZM19.32 11.1462C20.3368 6.58981 16.7124 2.00354 12 2.00354C7.29012 2.00354 3.66438 6.59682 4.68011 11.1467C5.16886 13.3361 6.26419 15.3017 7.55009 17.1193C8.89379 19.0186 10.4171 20.6645 11.5701 21.805C11.8214 22.0536 12.1786 22.0536 12.4299 21.805C13.5829 20.6644 15.1064 19.0184 16.4501 17.119C17.7359 15.3015 18.8316 13.3355 19.32 11.1462Z" fill="#0F0F0F"/>
</svg>