<?xml version="1.0" encoding="utf-8"?><!-- Uploaded to: SVG Repo, www.svgrepo.com, Generator: SVG Repo Mixer Tools -->
<svg width="800px" height="800px" viewBox="0 0 24 24" fill="none" xmlns="http://www.w3.org/2000/svg">
<path fill-rule="evenodd" clip-rule="evenodd" d="M8 3C8 1.89543 8.89543 1 10 1H14C15.1046 1 16 1.89543 16 3V5.02297L18.8108 3.89864C19.7457 3.52467 20.8129 3.90408 21.3019 4.78431L22.8508 7.57234C23.4158 8.58931 22.9969 9.87203 21.9406 10.3595L18.3863 12L21.9406 13.6405C22.9969 14.128 23.4158 15.4107 22.8508 16.4277L21.3019 19.2157C20.8129 20.0959 19.7457 20.4753 18.8108 20.1014L16 18.977V21C16 22.1046 15.1046 23 14 23H10C8.89543 23 8 22.1046 8 21V18.977L5.18918 20.1014C4.25426 20.4753 3.1871 20.0959 2.69809 19.2157L1.14918 16.4277C0.584198 15.4107 1.00309 14.128 2.05938 13.6405L5.61369 12L2.05938 10.3595C1.00309 9.87203 0.584197 8.58931 1.14918 7.57234L2.69809 4.78431C3.1871 3.90409 4.25426 3.52467 5.18918 3.89864L8 5.02297V3ZM14 3H10V6.5C10 6.83182 9.8354 7.14204 9.56062 7.32807C9.28585 7.5141 8.9367 7.55171 8.6286 7.42848L4.4464 5.7556L2.89749 8.54363L8.41905 11.092C8.7732 11.2555 9 11.6099 9 12C9 12.3901 8.7732 12.7445 8.41905 12.908L2.89749 15.4564L4.4464 18.2444L8.6286 16.5715C8.9367 16.4483 9.28585 16.4859 9.56062 16.6719C9.8354 16.858 10 17.1682 10 17.5V21H14V17.5C14 17.1682 14.1646 16.858 14.4394 16.6719C14.7141 16.4859 15.0633 16.4483 15.3714 16.5715L19.5536 18.2444L21.1025 15.4564L15.5809 12.908C15.2268 12.7445 15 12.3901 15 12C15 11.6099 15.2268 11.2555 15.5809 11.092L21.1025 8.54363L19.5536 5.7556L15.3714 7.42848C15.0633 7.55171 14.7141 7.5141 14.4394 7.32807C14.1646 7.14204 14 6.83182 14 6.5V3Z" fill="#0F0F0F"/>
</svg>