<?xml version="1.0" encoding="utf-8"?><!-- Uploaded to: SVG Repo, www.svgrepo.com, Generator: SVG Repo Mixer Tools -->
<svg width="800px" height="800px" viewBox="0 0 24 24" fill="none" xmlns="http://www.w3.org/2000/svg">
<path d="M12 11C12.5523 11 13 11.4477 13 12V14H15C15.5523 14 16 14.4477 16 15C16 15.5523 15.5523 16 15 16H13V18C13 18.5523 12.5523 19 12 19C11.4477 19 11 18.5523 11 18V16H9C8.44771 16 8 15.5523 8 15C8 14.4477 8.44771 14 9 14H11V12C11 11.4477 11.4477 11 12 11Z" fill="#0F0F0F"/>
<path fill-rule="evenodd" clip-rule="evenodd" d="M8 1C6.89543 1 6 1.89543 6 3V4C6 5.10457 6.89543 6 8 6V8.38197L5.65836 9.55279C4.64201 10.061 4 11.0998 4 12.2361V20C4 21.6569 5.34315 23 7 23H17C18.6569 23 20 21.6569 20 20V12.2361C20 11.0998 19.358 10.061 18.3416 9.55279L16 8.38197V6C17.1046 6 18 5.10457 18 4V3C18 1.89543 17.1046 1 16 1H8ZM14 6H10V8.38197C10 9.13951 9.57199 9.83204 8.89443 10.1708L6.55279 11.3416C6.214 11.511 6 11.8573 6 12.2361V20C6 20.5523 6.44772 21 7 21H17C17.5523 21 18 20.5523 18 20V12.2361C18 11.8573 17.786 11.511 17.4472 11.3416L15.1056 10.1708C14.428 9.83204 14 9.13951 14 8.38197V6ZM8 4H16V3H8V4Z" fill="#0F0F0F"/>
</svg>