<?xml version="1.0" encoding="utf-8"?><!-- Uploaded to: SVG Repo, www.svgrepo.com, Generator: SVG Repo Mixer Tools -->
<svg width="800px" height="800px" viewBox="0 0 24 24" fill="none" xmlns="http://www.w3.org/2000/svg">
<path fill-rule="evenodd" clip-rule="evenodd" d="M3 4C1.34315 4 0 5.34315 0 7V14C0 15.3121 0.842366 16.4275 2.01581 16.8348C2.18436 18.6108 3.67994 20 5.5 20C7.26324 20 8.72194 18.6961 8.96456 17H15.0354C15.2781 18.6961 16.7368 20 18.5 20C20.3201 20 21.8156 18.6108 21.9842 16.8348C23.1576 16.4275 24 15.3121 24 14V11.6396C24 10.2096 22.9906 8.97832 21.5883 8.69787L18.6193 8.10405L16.9355 5.41C16.3873 4.53286 15.4259 4 14.3915 4H3ZM4 16.4361V16.5639C4.03348 17.3634 4.69224 18.0013 5.5 18.0013C6.30776 18.0013 6.96652 17.3634 7 16.5639V16.4361C6.96652 15.6366 6.30776 14.9987 5.5 14.9987C4.69224 14.9987 4.03348 15.6366 4 16.4361ZM5.5 13C6.8962 13 8.10145 13.8175 8.66318 15H15.3368C15.8985 13.8175 17.1038 13 18.5 13C19.8245 13 20.9771 13.7357 21.5716 14.8207C21.8306 14.64 22 14.3398 22 14V11.6396C22 11.1629 21.6635 10.7525 21.1961 10.659L17.901 10H13C11.8954 10 11 9.10457 11 8V6H3C2.44772 6 2 6.44772 2 7V14C2 14.3398 2.16945 14.64 2.42845 14.8207C3.02292 13.7357 4.17555 13 5.5 13ZM13 6V7C13 7.55228 13.4477 8 14 8H16.1958L15.2395 6.47C15.0568 6.17762 14.7363 6 14.3915 6H13ZM17 16.4361V16.5639C17.0335 17.3634 17.6922 18.0013 18.5 18.0013C19.3078 18.0013 19.9665 17.3634 20 16.5639V16.4361C19.9665 15.6366 19.3078 14.9987 18.5 14.9987C17.6922 14.9987 17.0335 15.6366 17 16.4361Z" fill="#0F0F0F"/>
</svg>