<?xml version="1.0" encoding="utf-8"?><!-- Uploaded to: SVG Repo, www.svgrepo.com, Generator: SVG Repo Mixer Tools -->
<svg width="800px" height="800px" viewBox="0 0 24 24" fill="none" xmlns="http://www.w3.org/2000/svg">
<path fill-rule="evenodd" clip-rule="evenodd" d="M18.5149 1.12128C19.7772 0.805704 21 1.76042 21 3.06156V5.93846C21 6.85619 20.3754 7.65616 19.4851 7.87874L13 9.50001V18C13 20.7614 10.7614 23 8 23C5.23858 23 3 20.7614 3 18C3 15.2386 5.23858 13 8 13C9.12561 13 10.1643 13.372 11 13.9996V4.56156C11 3.64383 11.6246 2.84386 12.5149 2.62128L18.5149 1.12128ZM17.7575 3.31064C18.3886 3.15286 19 3.63022 19 4.28079V5.21923C19 5.6781 18.6877 6.07808 18.2425 6.18938L14.2425 7.18938C13.6114 7.34716 13 6.8698 13 6.21923V5.28079C13 4.82192 13.3123 4.42194 13.7575 4.31064L17.7575 3.31064ZM5.00786 18C5.00786 19.6525 6.34749 20.9921 8 20.9921C9.65251 20.9921 10.9921 19.6525 10.9921 18C10.9921 16.3475 9.65251 15.0079 8 15.0079C6.34749 15.0079 5.00786 16.3475 5.00786 18Z" fill="#0F0F0F"/>
</svg>