<?xml version="1.0" encoding="utf-8"?><!-- Uploaded to: SVG Repo, www.svgrepo.com, Generator: SVG Repo Mixer Tools -->
<svg width="800px" height="800px" viewBox="0 0 24 24" fill="none" xmlns="http://www.w3.org/2000/svg">
<path fill-rule="evenodd" clip-rule="evenodd" d="M5 4C5 2.34315 6.34315 1 8 1H20C21.6569 1 23 2.34315 23 4V6C23 7.65685 21.6569 9 20 9H8C6.34315 9 5 7.65685 5 6H4C3.44772 6 3 6.44772 3 7V9C3 9.55228 3.44772 10 4 10H12C13.6569 10 15 11.3431 15 13V14C16.1046 14 17 14.8954 17 16L17 21C17 22.1046 16.1046 23 15 23H13C11.8954 23 11 22.1046 11 21V16C11 14.8954 11.8954 14 13 14V13C13 12.4477 12.5523 12 12 12H4C2.34315 12 1 10.6569 1 9V7C1 5.34315 2.34315 4 4 4H5ZM8 3C7.44772 3 7 3.44772 7 4V6C7 6.55228 7.44772 7 8 7H20C20.5523 7 21 6.55228 21 6V4C21 3.44772 20.5523 3 20 3H8ZM15 21L15 16H13V21H15Z" fill="#0F0F0F"/>
</svg>