<?xml version="1.0" encoding="utf-8"?><!-- Uploaded to: SVG Repo, www.svgrepo.com, Generator: SVG Repo Mixer Tools -->
<svg width="800px" height="800px" viewBox="0 0 24 24" fill="none" xmlns="http://www.w3.org/2000/svg">
<path d="M21.0001 8.00057C21.0001 6.05911 20.1642 4.5545 18.9002 3.55857C17.6625 2.58331 16.0579 2.12523 14.5001 2.12524C12.9422 2.12525 11.3377 2.58335 10.0999 3.55857C8.83594 4.55447 8.00006 6.05901 8.00006 8.00035V12H4C3.44772 12 3 12.4477 3 13C3 13.5523 3.44772 14 4 14H8.00006V17.5003C8.00006 17.9886 7.77396 18.3813 7.32191 18.7417C6.84774 19.1198 6.18897 19.4027 5.5214 19.6059C4.89866 19.7954 4.33802 19.8956 4.01958 19.9525L4.006 19.9549C3.82705 19.9869 3.64521 20.0194 3.48544 20.1064C3.44785 20.1268 3.29871 20.208 3.16927 20.3758C2.92678 20.69 2.89413 21.131 3.08849 21.4776C3.25085 21.7672 3.50129 21.8792 3.55202 21.9019L3.55404 21.9028C3.73461 21.9837 3.92395 21.9972 4.11898 21.999C4.22888 22 4.3388 22 4.44871 22L4.49438 22L19.9999 22.0004C21.4073 21.9998 21.2774 20 19.9999 20.0001C18.9998 20.0002 8.91471 20.0001 8.91471 20.0001C9.53353 19.3939 10.0001 18.57 10.0001 17.5003V14H14C14.5523 14 15 13.5523 15 13C15 12.4477 14.5523 12 14 12H10.0001V8.00035C10.0001 6.69169 10.5392 5.75869 11.3377 5.12954C12.1624 4.47971 13.308 4.12525 14.5001 4.12524C15.6922 4.12524 16.8377 4.47968 17.6624 5.12952C18.4609 5.75868 19.0001 6.69173 19.0001 8.00057C19.0001 8.55285 19.4478 9.00057 20.0001 9.00057C20.5523 9.00057 21.0001 8.55285 21.0001 8.00057Z" fill="#0F0F0F"/>
</svg>