<?xml version="1.0" encoding="utf-8"?><!-- Uploaded to: SVG Repo, www.svgrepo.com, Generator: SVG Repo Mixer Tools -->
<svg width="800px" height="800px" viewBox="0 0 24 24" fill="none" xmlns="http://www.w3.org/2000/svg">
<path fill-rule="evenodd" clip-rule="evenodd" d="M8 9C8 7.34315 9.34315 6 11 6H12C12.2117 6.0001 12.4248 6.02575 12.6332 6.06049C12.9799 6.11828 13.4575 6.23573 13.9472 6.48058C14.4408 6.7274 14.9649 7.11332 15.3633 7.71092C15.7659 8.31478 16 9.07499 16 9.99996C16 10.9249 15.7659 11.6851 15.3633 12.289C14.9649 12.8866 14.4409 13.2725 13.9472 13.5194C13.8707 13.5577 13.7944 13.5928 13.7189 13.6251L15.8 16.4C16.1314 16.8418 16.0418 17.4686 15.6 17.8C15.1582 18.1314 14.5314 18.0418 14.2 17.6L11.5 14L10 14V17C10 17.5523 9.55229 18 9 18C8.44772 18 8 17.5523 8 17V9ZM10 9V12L12.0003 11.9998C12.3603 11.9878 12.7318 11.891 13.0528 11.7305C13.3091 11.6023 13.5351 11.4258 13.6992 11.1796C13.8591 10.9397 14 10.575 14 9.99996C14 9.42497 13.8591 9.06021 13.6992 8.82033C13.5351 8.5742 13.3092 8.39762 13.0528 8.26944C12.7318 8.10893 12.3603 8.01218 12.0004 8.00018L11 8C10.4477 8 10 8.44772 10 9Z" fill="#0F0F0F"/>
<path fill-rule="evenodd" clip-rule="evenodd" d="M20 1C21.6569 1 23 2.34315 23 4V20C23 21.6569 21.6569 23 20 23H4C2.34315 23 1 21.6569 1 20V4C1 2.34315 2.34315 1 4 1H20ZM20 3C20.5523 3 21 3.44772 21 4V20C21 20.5523 20.5523 21 20 21H4C3.44772 21 3 20.5523 3 20V4C3 3.44772 3.44772 3 4 3H20Z" fill="#0F0F0F"/>
</svg>