<?xml version="1.0" encoding="utf-8"?><!-- Uploaded to: SVG Repo, www.svgrepo.com, Generator: SVG Repo Mixer Tools -->
<svg width="800px" height="800px" viewBox="0 0 24 24" fill="none" xmlns="http://www.w3.org/2000/svg">
<path d="M12.0333 22C12.5749 22 13.0186 21.5601 12.9704 21.0206C12.8712 19.9099 12.6038 18.8188 12.1756 17.7851C11.6221 16.4488 10.8108 15.2347 9.78809 14.2119C8.76534 13.1892 7.55117 12.3779 6.21488 11.8244C5.18118 11.3962 4.09007 11.1288 2.97941 11.0296C2.43993 10.9815 2 11.4251 2 11.9667C2 12.5083 2.44034 12.9419 2.97878 13.0004C3.83163 13.0932 4.66865 13.3069 5.46429 13.6365C6.56261 14.0914 7.56057 14.7582 8.40118 15.5988C9.2418 16.4394 9.90861 17.4374 10.3635 18.5357C10.6931 19.3313 10.9068 20.1684 10.9996 21.0212C11.0581 21.5597 11.4917 22 12.0333 22Z" fill="#0F0F0F"/>
<path d="M20.0394 22C20.5833 22 21.0269 21.5588 20.9987 21.0156C20.8867 18.8537 20.4064 16.7242 19.5761 14.7197C18.62 12.4116 17.2187 10.3144 15.4522 8.54785C13.6856 6.78129 11.5884 5.37997 9.28025 4.42392C7.27577 3.59363 5.14632 3.11328 2.9844 3.00127C2.44122 2.97313 2 3.4167 2 3.96061C2 4.50451 2.44129 4.94246 2.98429 4.97385C4.88741 5.08387 6.76103 5.51235 8.5265 6.24363C10.5957 7.1007 12.4757 8.35693 14.0594 9.9406C15.6431 11.5243 16.8993 13.4043 17.7564 15.4735C18.4877 17.239 18.9161 19.1126 19.0261 21.0157C19.0575 21.5587 19.4955 22 20.0394 22Z" fill="#0F0F0F"/>
<path d="M16.0433 22C16.5822 22 17.0224 21.5626 16.9874 21.0248C16.8808 19.3861 16.506 17.7737 15.8759 16.2524C15.1211 14.4302 14.0148 12.7745 12.6201 11.3799C11.2255 9.98523 9.56977 8.87893 7.74757 8.12415C6.22633 7.49403 4.61391 7.1192 2.97519 7.01258C2.43737 6.97758 2 7.41779 2 7.95675C2 8.49571 2.43751 8.92883 2.97497 8.96904C4.35718 9.07245 5.71628 9.3953 7.00067 9.92731C8.58608 10.584 10.0266 11.5465 11.24 12.76C12.4535 13.9734 13.416 15.4139 14.0727 16.9993C14.6047 18.2837 14.9275 19.6428 15.031 21.025C15.0712 21.5625 15.5043 22 16.0433 22Z" fill="#0F0F0F"/>
</svg>