<?xml version="1.0" encoding="utf-8"?><!-- Uploaded to: SVG Repo, www.svgrepo.com, Generator: SVG Repo Mixer Tools -->
<svg width="800px" height="800px" viewBox="0 0 24 24" fill="none" xmlns="http://www.w3.org/2000/svg">
<path fill-rule="evenodd" clip-rule="evenodd" d="M11 6C9.34315 6 8 7.34315 8 9V17C8 17.5523 8.44772 18 9 18C9.55229 18 10 17.5523 10 17V14L11.5 14L14.2 17.6C14.5314 18.0418 15.1582 18.1314 15.6 17.8C16.0418 17.4686 16.1314 16.8418 15.8 16.4L13.7189 13.6251C13.7944 13.5928 13.8707 13.5577 13.9472 13.5194C14.4409 13.2725 14.9649 12.8866 15.3633 12.289C15.7659 11.6851 16 10.9249 16 9.99996C16 9.07499 15.7659 8.31478 15.3633 7.71092C14.9649 7.11332 14.4408 6.7274 13.9472 6.48058C13.4575 6.23573 12.9799 6.11828 12.6332 6.06049C12.4248 6.02575 12.2117 6.0001 12 6H11ZM10 12V9C10 8.44772 10.4477 8 11 8L12.0004 8.00018C12.3603 8.01218 12.7318 8.10893 13.0528 8.26944C13.3092 8.39762 13.5351 8.5742 13.6992 8.82033C13.8591 9.06021 14 9.42497 14 9.99996C14 10.575 13.8591 10.9397 13.6992 11.1796C13.5351 11.4258 13.3091 11.6023 13.0528 11.7305C12.7318 11.891 12.3603 11.9878 12.0003 11.9998L10 12Z" fill="#0F0F0F"/>
<path fill-rule="evenodd" clip-rule="evenodd" d="M23 12C23 18.0751 18.0751 23 12 23C5.92487 23 1 18.0751 1 12C1 5.92487 5.92487 1 12 1C18.0751 1 23 5.92487 23 12ZM3.00683 12C3.00683 16.9668 7.03321 20.9932 12 20.9932C16.9668 20.9932 20.9932 16.9668 20.9932 12C20.9932 7.03321 16.9668 3.00683 12 3.00683C7.03321 3.00683 3.00683 7.03321 3.00683 12Z" fill="#0F0F0F"/>
</svg>