<?xml version="1.0" encoding="utf-8"?><!-- Uploaded to: SVG Repo, www.svgrepo.com, Generator: SVG Repo Mixer Tools -->
<svg width="800px" height="800px" viewBox="0 0 24 24" fill="none" xmlns="http://www.w3.org/2000/svg">
<path fill-rule="evenodd" clip-rule="evenodd" d="M12.7071 2.62126C12.3166 2.23074 11.6834 2.23074 11.2929 2.62126L2.62132 11.2928C2.2308 11.6834 2.2308 12.3165 2.62132 12.707L11.2929 21.3786C11.6834 21.7691 12.3166 21.7691 12.7071 21.3786L21.3787 12.707C21.7692 12.3165 21.7692 11.6834 21.3787 11.2928L12.7071 2.62126ZM9.87868 1.20705C11.0503 0.0354757 12.9498 0.0354762 14.1213 1.20705L22.7929 9.87862C23.9645 11.0502 23.9645 12.9497 22.7929 14.1213L14.1213 22.7928C12.9497 23.9644 11.0503 23.9644 9.87868 22.7928L1.20711 14.1213C0.0355367 12.9497 0.0355372 11.0502 1.20711 9.87862L9.87868 1.20705Z" fill="#0F0F0F"/>
<path d="M12.7574 7.70705C13.1479 7.31652 13.7811 7.31652 14.1716 7.70705L17 10.5355C17.7811 11.3165 17.7811 12.5829 17 13.3639L14.1716 16.1923C13.7811 16.5829 13.1479 16.5829 12.7574 16.1923C12.3668 15.8018 12.3668 15.1686 12.7574 14.7781L14.5355 12.9999H11C10.4477 12.9999 10 13.4477 10 13.9999V14.9999C10 15.5522 9.55229 15.9999 9 15.9999C8.44772 15.9999 8 15.5522 8 14.9999V12.9999C8 11.8954 8.89543 10.9999 10 10.9999H14.636L12.7574 9.12126C12.3668 8.73074 12.3668 8.09757 12.7574 7.70705Z" fill="#0F0F0F"/>
</svg>