<?xml version="1.0" encoding="utf-8"?><!-- Uploaded to: SVG Repo, www.svgrepo.com, Generator: SVG Repo Mixer Tools -->
<svg width="800px" height="800px" viewBox="0 0 24 24" fill="none" xmlns="http://www.w3.org/2000/svg">
<path d="M10.7071 9.70711C11.0976 9.31658 11.0976 8.68342 10.7071 8.29289C10.3166 7.90237 9.68342 7.90237 9.29289 8.29289L8.29289 9.29289C7.90237 9.68342 7.90237 10.3166 8.29289 10.7071C8.68342 11.0976 9.31658 11.0976 9.70711 10.7071L10.7071 9.70711Z" fill="#0F0F0F"/>
<path d="M13.2071 10.7929C13.5976 11.1834 13.5976 11.8166 13.2071 12.2071L12.2071 13.2071C11.8166 13.5976 11.1834 13.5976 10.7929 13.2071C10.4024 12.8166 10.4024 12.1834 10.7929 11.7929L11.7929 10.7929C12.1834 10.4024 12.8166 10.4024 13.2071 10.7929Z" fill="#0F0F0F"/>
<path d="M15.7071 14.7071C16.0976 14.3166 16.0976 13.6834 15.7071 13.2929C15.3166 12.9024 14.6834 12.9024 14.2929 13.2929L13.2929 14.2929C12.9024 14.6834 12.9024 15.3166 13.2929 15.7071C13.6834 16.0976 14.3166 16.0976 14.7071 15.7071L15.7071 14.7071Z" fill="#0F0F0F"/>
<path fill-rule="evenodd" clip-rule="evenodd" d="M18.7071 5.29294C16.5018 3.08765 13.0209 1.78137 9.9144 1.26361C8.34616 1.00223 6.81617 0.931586 5.52031 1.068C4.2792 1.19865 3.04597 1.53983 2.29288 2.29295C1.5398 3.04607 1.19864 4.27929 1.06799 5.52041C0.931588 6.81626 1.00223 8.34626 1.2636 9.9145C1.78136 13.021 3.08762 16.5019 5.2929 18.7072C7.49817 20.9124 10.9791 22.2186 14.0856 22.7364C15.6538 22.9978 17.1838 23.0684 18.4797 22.932C19.7208 22.8014 20.954 22.4602 21.7071 21.7072C22.4602 20.9541 22.8014 19.7208 22.932 18.4797C23.0684 17.1839 22.9978 15.6539 22.7364 14.0857C22.2186 10.9791 20.9124 7.49823 18.7071 5.29294ZM3.70712 3.70714C3.95403 3.46022 4.5958 3.17637 5.72969 3.05701C6.75757 2.9488 8.02665 2.99298 9.38216 3.20363L3.20362 9.38217C2.99298 8.0267 2.94881 6.75765 3.057 5.72977C3.17636 4.59588 3.4602 3.95407 3.70712 3.70714ZM3.71327 11.7009C4.33523 13.876 5.34913 15.935 6.7071 17.2929C8.06506 18.6509 10.124 19.6648 12.2991 20.2867L20.2867 12.2991C19.6647 10.124 18.6508 8.06511 17.2929 6.70715C15.9349 5.34917 13.876 4.33526 11.7009 3.7133L3.71327 11.7009ZM18.2703 20.943C17.2424 21.0512 15.9733 21.007 14.6178 20.7964L20.7964 14.6178C21.007 15.9734 21.0512 17.2425 20.943 18.2704C20.8236 19.4043 20.5398 20.046 20.2929 20.2929C20.046 20.5398 19.4042 20.8237 18.2703 20.943Z" fill="#0F0F0F"/>
</svg>