<?xml version="1.0" encoding="utf-8"?><!-- Uploaded to: SVG Repo, www.svgrepo.com, Generator: SVG Repo Mixer Tools -->
<svg width="800px" height="800px" viewBox="0 0 24 24" fill="none" xmlns="http://www.w3.org/2000/svg">
<path d="M7 18.0001C7 18.5523 6.55228 19.0001 6 19.0001C5.44772 19.0001 5 18.5523 5 18.0001C5 17.4478 5.44772 17.0001 6 17.0001C6.55228 17.0001 7 17.4478 7 18.0001Z" fill="#0F0F0F"/>
<path fill-rule="evenodd" clip-rule="evenodd" d="M6.6 2.20006C6.15817 1.86869 5.53137 1.95823 5.2 2.40006C4.86863 2.84189 4.95817 3.46869 5.4 3.80006L19 14.0001H4C2.34315 14.0001 1 15.3432 1 17.0001V19.0001C1 20.6569 2.34315 22.0001 4 22.0001H20C21.6569 22.0001 23 20.6569 23 19.0001V16C23 15.0557 22.5604 14.1703 21.8049 13.6037C18.4007 11.0506 8.75927 3.81951 6.6 2.20006ZM21 17.0001C21 16.4478 20.5523 16.0001 20 16.0001H4C3.44772 16.0001 3 16.4478 3 17.0001V19.0001C3 19.5523 3.44772 20.0001 4 20.0001H20C20.5523 20.0001 21 19.5523 21 19.0001V17.0001Z" fill="#0F0F0F"/>
</svg>