<?xml version="1.0" encoding="utf-8"?><!-- Uploaded to: SVG Repo, www.svgrepo.com, Generator: SVG Repo Mixer Tools -->
<svg width="800px" height="800px" viewBox="0 0 24 24" fill="none" xmlns="http://www.w3.org/2000/svg">
<path fill-rule="evenodd" clip-rule="evenodd" d="M12 4C12 3.44772 12.4477 3 13 3H14.5585C15.8498 3 16.9962 3.82629 17.4045 5.05132L20.7525 15.0952C22.0451 15.429 23 16.603 23 18C23 19.6569 21.6569 21 20 21C18.3431 21 17 19.6569 17 18C17 16.8051 17.6986 15.7734 18.7096 15.2909L18.0147 13.2065L15.9472 17.3416C15.439 18.3579 14.4002 18.9999 13.2639 18.9999H6.82931C6.41749 20.1652 5.30624 21 4 21C2.34315 21 1 19.6569 1 18C1 16.3431 2.34315 15 4 15C5.3062 15 6.41743 15.8348 6.82928 16.9999H13.2639C13.6427 16.9999 13.989 16.7859 14.1584 16.4472L17.1056 10.5527L17.1351 10.5675L15.5072 5.68377C15.3711 5.27543 14.9889 5 14.5585 5H13C12.4477 5 12 4.55228 12 4ZM4 19.0032C3.44595 19.0032 2.99681 18.554 2.99681 18C2.99681 17.446 3.44595 16.9968 4 16.9968C4.55405 16.9968 5.00319 17.446 5.00319 18C5.00319 18.554 4.55405 19.0032 4 19.0032ZM20 19.0032C19.446 19.0032 18.9968 18.554 18.9968 18C18.9968 17.446 19.446 16.9968 20 16.9968C20.554 16.9968 21.0032 17.446 21.0032 18C21.0032 18.554 20.554 19.0032 20 19.0032Z" fill="#0F0F0F"/>
</svg>