<?xml version="1.0" encoding="utf-8"?><!-- Uploaded to: SVG Repo, www.svgrepo.com, Generator: SVG Repo Mixer Tools -->
<svg width="800px" height="800px" viewBox="0 0 24 24" fill="none" xmlns="http://www.w3.org/2000/svg">
<path fill-rule="evenodd" clip-rule="evenodd" d="M12.6173 1.07615C12.991 0.921369 13.4211 1.00692 13.7071 1.29292L22.7071 10.2929C22.9931 10.5789 23.0787 11.009 22.9239 11.3827C22.7691 11.7564 22.4045 12 22 12H17.4142L7 22.4142C6.62493 22.7893 6.11622 23 5.58579 23H3C1.89543 23 1 22.1046 1 21V18.4142C1 17.8838 1.21071 17.3751 1.58579 17C5.05723 13.5286 8.52858 10.0572 12 6.58582V2.00003C12 1.59557 12.2436 1.23093 12.6173 1.07615ZM10.5 10.9142L9.41422 12L12 14.5858L13.0858 13.5L10.5 10.9142ZM14.5 12.0858L11.9142 9.49999L13 8.41424L15.5858 11L14.5 12.0858ZM10.5858 16L8 13.4142L6.91422 14.5L9.5 17.0858L10.5858 16ZM8.08579 18.5L5.50001 15.9142L4.41422 17L7 19.5858L8.08579 18.5ZM5.58579 21L3 18.4142V21H5.58579ZM14 4.41424V6.58582L17.4142 10H19.5858L14 4.41424Z" fill="#0F0F0F"/>
</svg>