<?xml version="1.0" encoding="utf-8"?><!-- Uploaded to: SVG Repo, www.svgrepo.com, Generator: SVG Repo Mixer Tools -->
<svg width="800px" height="800px" viewBox="0 0 24 24" fill="none" xmlns="http://www.w3.org/2000/svg">
<path d="M12.6596 8.05973C13.0554 7.9164 13.4987 8.03638 13.7682 8.35982L15.5 10.438L17.2318 8.35982C17.5013 8.03638 17.9446 7.9164 18.3404 8.05973C18.7363 8.20305 19 8.57898 19 9V15C19 15.5523 18.5523 16 18 16C17.4477 16 17 15.5523 17 15V11.7621L16.2682 12.6402C16.0782 12.8682 15.7968 13 15.5 13C15.2032 13 14.9218 12.8682 14.7318 12.6402L14 11.762V15C14 15.5523 13.5523 16 13 16C12.4477 16 12 15.5523 12 15V9C12 8.57898 12.2637 8.20305 12.6596 8.05973Z" fill="#0F0F0F"/>
<path d="M7.5 8C6.72864 8 6.07664 8.2992 5.62759 8.80439C5.1949 9.29117 5 9.91193 5 10.5C5 11.0881 5.1949 11.7088 5.62759 12.1956C6.07664 12.7008 6.72864 13 7.5 13H8.5C8.72864 13 8.82665 13.0758 8.87759 13.1331C8.9449 13.2088 9 13.3381 9 13.5C9 13.6619 8.9449 13.7912 8.87759 13.8669C8.82665 13.9242 8.72864 14 8.5 14H6C5.44772 14 5 14.4477 5 15C5 15.5523 5.44772 16 6 16H8.5C9.27136 16 9.92336 15.7008 10.3724 15.1956C10.8051 14.7088 11 14.0881 11 13.5C11 12.9119 10.8051 12.2912 10.3724 11.8044C9.92336 11.2992 9.27136 11 8.5 11H7.5C7.27136 11 7.17336 10.9242 7.12241 10.8669C7.0551 10.7912 7 10.6619 7 10.5C7 10.3381 7.0551 10.2088 7.12241 10.1331C7.17336 10.0758 7.27136 10 7.5 10H10C10.5523 10 11 9.55229 11 9C11 8.44772 10.5523 8 10 8H7.5Z" fill="#0F0F0F"/>
<path fill-rule="evenodd" clip-rule="evenodd" d="M23 12C23 18.0751 18.0751 23 12 23C5.92487 23 1 18.0751 1 12C1 5.92487 5.92487 1 12 1C18.0751 1 23 5.92487 23 12ZM3.00683 12C3.00683 16.9668 7.03321 20.9932 12 20.9932C16.9668 20.9932 20.9932 16.9668 20.9932 12C20.9932 7.03321 16.9668 3.00683 12 3.00683C7.03321 3.00683 3.00683 7.03321 3.00683 12Z" fill="#0F0F0F"/>
</svg>