<?xml version="1.0" encoding="utf-8"?><!-- Uploaded to: SVG Repo, www.svgrepo.com, Generator: SVG Repo Mixer Tools -->
<svg width="800px" height="800px" viewBox="0 0 24 24" fill="none" xmlns="http://www.w3.org/2000/svg">
<path fill-rule="evenodd" clip-rule="evenodd" d="M10.1548 3.74068C9.13306 4.24326 7.70274 4.75901 5.07021 4.93689C4.43314 4.97993 4.01738 5.47217 4.03533 5.965C4.13502 8.70059 4.45127 11.4217 5.0553 13.6538C5.67349 15.9383 6.53465 17.4879 7.55469 18.1679C9.1615 19.2392 10.4837 20.1681 11.3705 20.8038C11.7447 21.072 12.2553 21.072 12.6294 20.8038C13.5162 20.1681 14.8385 19.2392 16.4453 18.1679C17.4653 17.4879 18.3265 15.9383 18.9447 13.6539C19.5487 11.4218 19.865 8.70066 19.9646 5.965C19.9826 5.47217 19.5668 4.97993 18.9298 4.93689C16.2972 4.75901 14.8669 4.24326 13.8452 3.74068C13.5533 3.5971 13.3276 3.47746 13.1423 3.37923C12.6352 3.11045 12.4305 3.00195 12 3.00195C11.5694 3.00195 11.3647 3.11045 10.8577 3.37923C10.6724 3.47746 10.4467 3.5971 10.1548 3.74068ZM9.68627 1.72824C10.3021 1.39456 11.0268 1.00195 12 1.00195C12.9732 1.00195 13.6978 1.39456 14.3137 1.72825C14.4571 1.80594 14.5946 1.88044 14.728 1.94605C15.503 2.32729 16.6774 2.78014 19.0646 2.94144C20.6316 3.04732 22.0258 4.32298 21.9633 6.03782C21.8605 8.8586 21.5333 11.7445 20.8752 14.1763C20.2313 16.5559 19.2117 18.7274 17.5547 19.8321C15.97 20.8885 14.6667 21.8042 13.7947 22.4293C12.724 23.1969 11.276 23.1969 10.2053 22.4293C9.33329 21.8042 8.02992 20.8885 6.44528 19.8321C4.78826 18.7274 3.76867 16.5559 3.12474 14.1763C2.46666 11.7444 2.13944 8.85853 2.03666 6.03783C1.97417 4.32298 3.36833 3.04732 4.93538 2.94144C7.32256 2.78014 8.49696 2.32729 9.27198 1.94605C9.40536 1.88044 9.54287 1.80594 9.68627 1.72824Z" fill="#0F0F0F"/>
</svg>