<?xml version="1.0" encoding="utf-8"?><!-- Uploaded to: SVG Repo, www.svgrepo.com, Generator: SVG Repo Mixer Tools -->
<svg width="800px" height="800px" viewBox="0 0 24 24" fill="none" xmlns="http://www.w3.org/2000/svg">
<path d="M13.4142 10.5858C13.0237 10.1953 13.0237 9.56215 13.4142 9.17163L14.8284 7.75742C15.2189 7.36689 15.8521 7.36689 16.2426 7.75742C16.6331 8.14794 16.6331 8.78111 16.2426 9.17163L14.8284 10.5858C14.4379 10.9764 13.8047 10.9764 13.4142 10.5858Z" fill="#0F0F0F"/>
<path d="M7.75736 14.8286C7.36684 15.2191 7.36684 15.8523 7.75736 16.2428C8.14789 16.6334 8.78105 16.6334 9.17158 16.2428L10.5858 14.8286C10.9763 14.4381 10.9763 13.8049 10.5858 13.4144C10.1953 13.0239 9.5621 13.0239 9.17158 13.4144L7.75736 14.8286Z" fill="#0F0F0F"/>
<path fill-rule="evenodd" clip-rule="evenodd" d="M18.6043 1.34086C19.4817 1.51634 20.3615 1.97674 21.1924 2.80758C22.0232 3.63842 22.4836 4.5183 22.6591 5.3957C22.8331 6.26572 22.7133 7.06385 22.4946 7.72C22.2773 8.37201 21.9563 8.90326 21.6968 9.26664C21.0884 10.1184 20.2452 10.7499 19.4295 11.3903C19.2589 11.5243 19.0828 11.6625 18.9003 11.8086C18.0439 12.4936 16.9225 13.4414 15.182 15.1819C13.4414 16.9225 12.4937 18.0439 11.8086 18.9002C11.6624 19.0829 11.5245 19.2586 11.3904 19.4294C10.7534 20.2407 10.1137 21.0917 9.26667 21.6967C8.90329 21.9563 8.37204 22.2773 7.72003 22.4946C7.06388 22.7133 6.26575 22.8331 5.39573 22.6591C4.51833 22.4836 3.63845 22.0232 2.80761 21.1924C1.97677 20.3615 1.51637 19.4816 1.3409 18.6042C1.16689 17.7342 1.28666 16.9361 1.50537 16.2799C1.72271 15.6279 2.04368 15.0967 2.30324 14.7333C2.90823 13.8863 3.75921 13.2465 4.57052 12.6096C4.74128 12.4755 4.91709 12.3375 5.09973 12.1914C5.95609 11.5063 7.07748 10.5585 8.81802 8.81799C10.5586 7.07745 11.5063 5.95606 12.1914 5.0997C12.3375 4.91702 12.4754 4.74139 12.6095 4.57059C13.2464 3.75937 13.8864 2.90813 14.7333 2.30321C15.0967 2.04364 15.628 1.72268 16.28 1.50534C16.9361 1.28663 17.7343 1.16686 18.6043 1.34086ZM15.8958 3.93067C16.1511 3.74829 16.5038 3.53893 16.9124 3.40271C17.3169 3.26788 17.7562 3.21087 18.212 3.30203C18.6605 3.39171 19.1948 3.63842 19.7782 4.2218C20.3615 4.80517 20.6083 5.3395 20.6979 5.78793C20.7891 6.24374 20.7321 6.68304 20.5973 7.08755C20.461 7.4962 20.2517 7.84884 20.0693 8.10417C19.59 8.77517 18.8856 9.27344 18.2445 9.77727C18.0632 9.9197 17.8675 10.0736 17.6509 10.2468C16.7395 10.976 15.5628 11.9727 13.7678 13.7677C11.9728 15.5627 10.976 16.7394 10.2469 17.6508C10.0736 17.8674 9.91982 18.0631 9.77743 18.2443C9.27147 18.8881 8.77824 19.5878 8.1042 20.0693C7.84887 20.2516 7.49623 20.461 7.08758 20.5972C6.68307 20.7321 6.24377 20.7891 5.78796 20.6979C5.33953 20.6082 4.8052 20.3615 4.22182 19.7781C3.63845 19.1948 3.39174 18.6604 3.30206 18.212C3.2109 17.7562 3.26791 17.3169 3.40274 16.9124C3.53896 16.5037 3.74832 16.1511 3.9307 15.8958C4.40998 15.2248 5.11441 14.7265 5.75549 14.2227C5.93672 14.0803 6.13253 13.9264 6.34912 13.7531C7.26053 13.024 8.43724 12.0272 10.2322 10.2322C12.0272 8.43721 13.024 7.2605 13.7531 6.34909C13.926 6.13296 14.0796 5.93755 14.2218 5.75664L14.2225 5.75571C14.7264 5.11455 15.2247 4.41001 15.8958 3.93067Z" fill="#0F0F0F"/>
</svg>