<?xml version="1.0" encoding="utf-8"?><!-- Uploaded to: SVG Repo, www.svgrepo.com, Generator: SVG Repo Mixer Tools -->
<svg width="800px" height="800px" viewBox="0 0 24 24" fill="none" xmlns="http://www.w3.org/2000/svg">
<path d="M17.3189 8.38152C16.9284 7.99099 16.2952 7.99099 15.9047 8.38152L10.9912 13.295C10.6007 13.6856 9.96751 13.6856 9.57698 13.295L8.12132 11.8394C7.7308 11.4488 7.09763 11.4488 6.70711 11.8394C6.31658 12.2299 6.31658 12.8631 6.70711 13.2536L8.52183 15.0621C9.49854 16.0355 11.079 16.0342 12.0541 15.0593L17.3189 9.79573C17.7094 9.4052 17.7094 8.77204 17.3189 8.38152Z" fill="#0F0F0F"/>
<path fill-rule="evenodd" clip-rule="evenodd" d="M20 1C21.6569 1 23 2.34315 23 4V20C23 21.6569 21.6569 23 20 23H4C2.34315 23 1 21.6569 1 20V4C1 2.34315 2.34315 1 4 1H20ZM20 3C20.5523 3 21 3.44772 21 4V20C21 20.5523 20.5523 21 20 21H4C3.44772 21 3 20.5523 3 20V4C3 3.44772 3.44772 3 4 3H20Z" fill="#0F0F0F"/>
</svg>