<?xml version="1.0" encoding="utf-8"?><!-- Uploaded to: SVG Repo, www.svgrepo.com, Generator: SVG Repo Mixer Tools -->
<svg width="800px" height="800px" viewBox="0 0 24 24" fill="none" xmlns="http://www.w3.org/2000/svg">
<path fill-rule="evenodd" clip-rule="evenodd" d="M12 2C11.4477 2 11 2.44772 11 3V7L11 7.00189L9.70082 5.70271C9.3103 5.31219 8.67713 5.31219 8.28661 5.70271C7.89609 6.09324 7.89609 6.7264 8.28661 7.11693L10.5845 9.41479C11.3655 10.1958 12.6319 10.1958 13.4129 9.41479L15.7098 7.11775C16.1003 6.72723 16.1003 6.09406 15.7098 5.70354C15.3192 5.31301 14.6861 5.31301 14.2956 5.70354L13 6.9991V3C13 2.44772 12.5523 2 12 2Z" fill="#0F0F0F"/>
<path fill-rule="evenodd" clip-rule="evenodd" d="M16.9959 17.0907C16.9986 17.0645 16.9999 17.0378 17 17.0105C17.0008 16.6094 16.9534 16.2084 16.8579 15.8163C16.6831 15.0991 16.3517 14.4294 15.8874 13.8555C15.4232 13.2816 14.8376 12.8175 14.1727 12.4968C13.5079 12.176 12.7802 12.0064 12.0421 12.0002C11.3039 11.994 10.5735 12.1513 9.90332 12.4608C9.23316 12.7704 8.63986 13.2245 8.16601 13.7906C7.69217 14.3566 7.34954 15.0206 7.16274 15.7347C7.06061 16.1252 7.00644 16.5253 7.00054 16.9264C7.00037 16.9381 7.00044 16.9496 7.00075 16.961C7.00025 16.974 7 16.9869 7 17C7 17.5523 7.44772 18 8 18H16C16.5217 18 16.9501 17.6005 16.9959 17.0907ZM9.17733 16H14.8227C14.7094 15.6803 14.5424 15.3815 14.3282 15.1167C14.0502 14.773 13.6995 14.4951 13.3013 14.3029C12.9031 14.1108 12.4673 14.0093 12.0252 14.0055C11.5831 14.0018 11.1456 14.096 10.7443 14.2814C10.3429 14.4668 9.98756 14.7388 9.70377 15.0778C9.47433 15.3519 9.29625 15.6643 9.17733 16Z" fill="#0F0F0F"/>
<path d="M1 18C0.447715 18 0 17.5523 0 17C0 16.4477 0.447715 16 1 16H4C4.55229 16 5 16.4477 5 17C5 17.5523 4.55229 18 4 18H1Z" fill="#0F0F0F"/>
<path d="M3.51472 8.51457C3.1242 8.9051 3.1242 9.53826 3.51472 9.92879L5.63604 12.0501C6.02657 12.4406 6.65973 12.4406 7.05026 12.0501C7.44078 11.6596 7.44078 11.0264 7.05026 10.6359L4.92894 8.51457C4.53841 8.12405 3.90525 8.12405 3.51472 8.51457Z" fill="#0F0F0F"/>
<path d="M20 18C19.4477 18 19 17.5523 19 17C19 16.4477 19.4477 16 20 16H23C23.5523 16 24 16.4477 24 17C24 17.5523 23.5523 18 23 18H20Z" fill="#0F0F0F"/>
<path d="M16.9498 12.0502C17.3403 12.4407 17.9734 12.4407 18.364 12.0502L20.4853 9.9289C20.8758 9.53837 20.8758 8.90521 20.4853 8.51468C20.0948 8.12416 19.4616 8.12416 19.0711 8.51468L16.9498 10.636C16.5592 11.0265 16.5592 11.6597 16.9498 12.0502Z" fill="#0F0F0F"/>
<path d="M0 21C0 20.4477 0.447715 20 1 20H23C23.5523 20 24 20.4477 24 21C24 21.5523 23.5523 22 23 22H1C0.447715 22 0 21.5523 0 21Z" fill="#0F0F0F"/>
</svg>