<?xml version="1.0" encoding="utf-8"?><!-- Uploaded to: SVG Repo, www.svgrepo.com, Generator: SVG Repo Mixer Tools -->
<svg width="800px" height="800px" viewBox="0 0 24 24" fill="none" xmlns="http://www.w3.org/2000/svg">
<path d="M12 18C11.4477 18 11 18.4477 11 19C11 19.5523 11.4477 20 12 20C12.5523 20 13 19.5523 13 19C13 18.4477 12.5523 18 12 18Z" fill="#0F0F0F"/>
<path fill-rule="evenodd" clip-rule="evenodd" d="M21 4C21 2.34315 19.6569 1 18 1H6C4.34315 1 3 2.34315 3 4V20C3 21.6569 4.34315 23 6 23H18C19.6569 23 21 21.6569 21 20V4ZM19 4C19 3.44772 18.5523 3 18 3H6C5.44772 3 5 3.44772 5 4V15H19V4ZM5 20V17H19V20C19 20.5523 18.5523 21 18 21H6C5.44772 21 5 20.5523 5 20Z" fill="#0F0F0F"/>
</svg>