<?xml version="1.0" encoding="utf-8"?><!-- Uploaded to: SVG Repo, www.svgrepo.com, Generator: SVG Repo Mixer Tools -->
<svg width="800px" height="800px" viewBox="0 0 24 24" fill="none" xmlns="http://www.w3.org/2000/svg">
<path fill-rule="evenodd" clip-rule="evenodd" d="M2 4C2 2.89543 2.89543 2 4 2H20C21.1046 2 22 2.89543 22 4V7C22 7.55229 21.5523 8 21 8C20.4477 8 20 7.55229 20 7V5C20 4.44772 19.5523 4 19 4H13V20H17C17.5523 20 18 20.4477 18 21C18 21.5523 17.5523 22 17 22H7C6.44772 22 6 21.5523 6 21C6 20.4477 6.44772 20 7 20H11V4H5C4.44772 4 4 4.44772 4 5V7C4 7.55229 3.55228 8 3 8C2.44772 8 2 7.55229 2 7V4Z" fill="#0F0F0F"/>
</svg>