<?xml version="1.0" encoding="utf-8"?><!-- Uploaded to: SVG Repo, www.svgrepo.com, Generator: SVG Repo Mixer Tools -->
<svg width="800px" height="800px" viewBox="0 0 24 24" fill="none" xmlns="http://www.w3.org/2000/svg">
<path d="M16.7071 8.7072C17.0976 8.31668 17.0976 7.68351 16.7071 7.29299C16.3166 6.90246 15.6834 6.90246 15.2929 7.29299L7.29289 15.293C6.90237 15.6835 6.90237 16.3167 7.29289 16.7072C7.68342 17.0977 8.31658 17.0977 8.70711 16.7072L16.7071 8.7072Z" fill="#0F0F0F"/>
<path fill-rule="evenodd" clip-rule="evenodd" d="M4 15.3285V18.5859L1.29289 21.293C0.902369 21.6835 0.902369 22.3167 1.29289 22.7072C1.68342 23.0977 2.31658 23.0977 2.70711 22.7072L5.41421 20.0001H8.67157C9.46722 20.0001 10.2303 19.684 10.7929 19.1214L21.4571 8.4572C23.0903 6.82404 23.0903 4.17615 21.4571 2.54299C19.8239 0.90982 17.1761 0.909828 15.5429 2.54299L4.87868 13.2072C4.31607 13.7698 4 14.5329 4 15.3285ZM16.9571 3.95721C17.8092 3.10509 19.1908 3.10509 20.0429 3.9572C20.895 4.80932 20.895 6.19087 20.0429 7.04299L9.37868 17.7072C9.19114 17.8947 8.93679 18.0001 8.67157 18.0001H6V15.3285C6 15.0633 6.10536 14.809 6.29289 14.6214L16.9571 3.95721Z" fill="#0F0F0F"/>
</svg>