<?xml version="1.0" encoding="utf-8"?><!-- Uploaded to: SVG Repo, www.svgrepo.com, Generator: SVG Repo Mixer Tools -->
<svg width="800px" height="800px" viewBox="0 0 24 24" fill="none" xmlns="http://www.w3.org/2000/svg">
<path fill-rule="evenodd" clip-rule="evenodd" d="M13.4138 1.08963C13.9166 1.31817 14.1389 1.91102 13.9104 2.4138L9.76789 11.5273L15.7575 10.0299C16.1298 9.93676 16.5226 10.065 16.7683 10.3599C17.014 10.6549 17.0692 11.0644 16.9104 11.4138L11.9104 22.4138C11.6818 22.9166 11.089 23.1389 10.5862 22.9104C10.0834 22.6818 9.86109 22.089 10.0896 21.5862L14.2321 12.4727L8.24253 13.9701C7.87015 14.0632 7.47735 13.935 7.23167 13.6401C6.98599 13.3451 6.9308 12.9356 7.08963 12.5862L12.0896 1.5862C12.3182 1.08342 12.911 0.861097 13.4138 1.08963Z" fill="#0F0F0F"/>
</svg>