<?xml version="1.0" encoding="utf-8"?><!-- Uploaded to: SVG Repo, www.svgrepo.com, Generator: SVG Repo Mixer Tools -->
<svg width="800px" height="800px" viewBox="0 0 24 24" fill="none" xmlns="http://www.w3.org/2000/svg">
<path d="M5 9C5 8.44772 5.44772 8 6 8H10C10.5523 8 11 8.44772 11 9C11 9.55229 10.5523 10 10 10H9V15C9 15.5523 8.55228 16 8 16C7.44772 16 7 15.5523 7 15V10H6C5.44772 10 5 9.55229 5 9Z" fill="#0F0F0F"/>
<path d="M13.7682 8.35982C13.4987 8.03638 13.0554 7.9164 12.6596 8.05973C12.2637 8.20305 12 8.57898 12 9V15C12 15.5523 12.4477 16 13 16C13.5523 16 14 15.5523 14 15V11.762L14.7318 12.6402C14.9218 12.8682 15.2032 13 15.5 13C15.7968 13 16.0782 12.8682 16.2682 12.6402L17 11.7621V15C17 15.5523 17.4477 16 18 16C18.5523 16 19 15.5523 19 15V9C19 8.57898 18.7363 8.20305 18.3404 8.05973C17.9446 7.9164 17.5013 8.03638 17.2318 8.35982L15.5 10.438L13.7682 8.35982Z" fill="#0F0F0F"/>
<path fill-rule="evenodd" clip-rule="evenodd" d="M23 12C23 18.0751 18.0751 23 12 23C5.92487 23 1 18.0751 1 12C1 5.92487 5.92487 1 12 1C18.0751 1 23 5.92487 23 12ZM3.00683 12C3.00683 16.9668 7.03321 20.9932 12 20.9932C16.9668 20.9932 20.9932 16.9668 20.9932 12C20.9932 7.03321 16.9668 3.00683 12 3.00683C7.03321 3.00683 3.00683 7.03321 3.00683 12Z" fill="#0F0F0F"/>
</svg>