<?xml version="1.0" encoding="utf-8"?><!-- Uploaded to: SVG Repo, www.svgrepo.com, Generator: SVG Repo Mixer Tools -->
<svg width="800px" height="800px" viewBox="0 0 24 24" fill="none" xmlns="http://www.w3.org/2000/svg">
<path fill-rule="evenodd" clip-rule="evenodd" d="M12 18C14.7614 18 17 15.7614 17 13C17 10.2386 14.7614 8 12 8C9.23856 8 6.99999 10.2386 6.99999 13C6.99999 15.7614 9.23856 18 12 18ZM12 16C13.6568 16 15 14.6569 15 13C15 11.3431 13.6568 10 12 10C10.3431 10 8.99999 11.3431 8.99999 13C8.99999 14.6569 10.3431 16 12 16Z" fill="#0F0F0F"/>
<path fill-rule="evenodd" clip-rule="evenodd" d="M7.99999 3C6.90973 3 5.82314 4.02473 6.01368 5.1659C5.15481 5.46477 4.47359 6.14303 4.17069 7H0.999986C0.304564 7 -0.186764 7.72571 0.0715087 8.37139L4.00728 18.2108C4.11547 19.7693 5.414 21 6.99999 21H17C18.586 21 19.8845 19.7693 19.9927 18.2108L23.9285 8.37139C24.1867 7.72571 23.6954 7 23 7H19.8293C19.5264 6.14302 18.8452 5.46477 17.9863 5.1659C18.1768 4.02473 17.0902 3 16 3H7.99999ZM17 7H6.99999C6.4477 7 5.99999 7.44772 5.99999 8V18C5.99999 18.5523 6.4477 19 6.99999 19H17C17.5523 19 18 18.5523 18 18V8C18 7.44772 17.5523 7 17 7ZM2.47702 9H3.99999V12.8074L2.47702 9ZM20 9V12.8074L21.523 9H20Z" fill="#0F0F0F"/>
</svg>