<?xml version="1.0" encoding="utf-8"?><!-- Uploaded to: SVG Repo, www.svgrepo.com, Generator: SVG Repo Mixer Tools -->
<svg width="800px" height="800px" viewBox="0 0 24 24" fill="none" xmlns="http://www.w3.org/2000/svg">
<path fill-rule="evenodd" clip-rule="evenodd" d="M9 9H21C22.1046 9 23 8.10457 23 7V3C23 1.89543 22.1046 1 21 1H3C1.89543 1 1 1.89543 1 3V21C1 22.1046 1.89543 23 3 23H7C8.10457 23 9 22.1046 9 21V9ZM7 17V14H6C5.44772 14 5 13.5523 5 13C5 12.4477 5.44772 12 6 12H7V9H6C5.44772 9 5 8.55228 5 8C5 7.44772 5.44772 7 6 7H7V6C7 5.44772 7.44772 5 8 5C8.55228 5 9 5.44772 9 6V7H12V6C12 5.44772 12.4477 5 13 5C13.5523 5 14 5.44772 14 6V7H17V6C17 5.44772 17.4477 5 18 5C18.5523 5 19 5.44772 19 6V7H20C20.5523 7 21 6.55228 21 6V4C21 3.44772 20.5523 3 20 3H4C3.44772 3 3 3.44772 3 4V20C3 20.5523 3.44772 21 4 21H6C6.55228 21 7 20.5523 7 20V19H6C5.44772 19 5 18.5523 5 18C5 17.4477 5.44772 17 6 17H7Z" fill="#0F0F0F"/>
</svg>