<?xml version="1.0" encoding="utf-8"?><!-- Uploaded to: SVG Repo, www.svgrepo.com, Generator: SVG Repo Mixer Tools -->
<svg width="800px" height="800px" viewBox="0 0 24 24" fill="none" xmlns="http://www.w3.org/2000/svg">
<path d="M11.2526 0.340885L9.0356 2.835C8.63433 3.28643 8.9548 4.00005 9.55879 4.00005H11V17.1315L7.4453 14.7618C7.1671 14.5763 7 14.2641 7 13.9297V12.7325C7.5978 12.3867 8 11.7403 8 11.0001C8 9.89548 7.10457 9.00005 6 9.00005C4.89543 9.00005 4 9.89548 4 11.0001C4 11.7403 4.4022 12.3867 5 12.7325V13.9297C5 14.9328 5.50131 15.8695 6.33591 16.4259L11 19.5352V20.2676C10.4022 20.6134 10 21.2598 10 22.0001C10 23.1046 10.8954 24.0001 12 24.0001C13.1046 24.0001 14 23.1046 14 22.0001C14 21.2598 13.5978 20.6134 13 20.2676V16.5352L17.6641 13.4259C18.4987 12.8695 19 11.9328 19 10.9297V10.0001C19.5523 10.0001 20 9.55234 20 9.00005V7.00005C20 6.44777 19.5523 6.00005 19 6.00005H17C16.4477 6.00005 16 6.44777 16 7.00005V9.00005C16 9.55234 16.4477 10.0001 17 10.0001V10.9297C17 11.2641 16.8329 11.5763 16.5547 11.7618L13 14.1315V4.00005H14.4412C15.0452 4.00005 15.3657 3.28643 14.9644 2.835L12.7474 0.340885C12.3496 -0.10663 11.6504 -0.10663 11.2526 0.340885Z" fill="#0F0F0F"/>
</svg>