<?xml version="1.0" encoding="utf-8"?><!-- Uploaded to: SVG Repo, www.svgrepo.com, Generator: SVG Repo Mixer Tools -->
<svg width="800px" height="800px" viewBox="0 0 24 24" fill="none" xmlns="http://www.w3.org/2000/svg">
<path d="M18 1C19.6569 1 21 2.34315 21 4V9C21 9.55228 20.5523 10 20 10L-nan -nanL20 10C19.4477 10 19 9.55228 19 9V4C19 3.44772 18.5523 3 18 3H4C3.44772 3 3 3.44771 3 4V14C3 14.5523 3.44772 15 4 15H8C8.55228 15 9 15.4477 9 16L-nan -nanL9 16C9 16.5523 8.55228 17 8 17H4C2.34315 17 1 15.6569 1 14V4C1 2.34315 2.34315 1 4 1H18Z" fill="#0F0F0F"/>
<path fill-rule="evenodd" clip-rule="evenodd" d="M23 15C23 13.3431 21.6569 12 20 12H14C12.3431 12 11 13.3431 11 15V20C11 21.6569 12.3431 23 14 23H20C21.6569 23 23 21.6569 23 20V15ZM21 15C21 14.4477 20.5523 14 20 14H14C13.4477 14 13 14.4477 13 15V20C13 20.5523 13.4477 21 14 21H20C20.5523 21 21 20.5523 21 20V15Z" fill="#0F0F0F"/>
<path d="M5 10C5 10.5523 5.44772 11 6 11L9 11C10.1046 11 11 10.1046 11 9L11 6C11 5.44772 10.5523 5 10 5C9.44772 5 9 5.44772 9 6L9 7.58575L6.69865 5.2844C6.30812 4.89388 5.67496 4.89388 5.28444 5.2844C4.89391 5.67493 4.89391 6.30809 5.28443 6.69862L7.58582 9L6 9C5.44772 9 5 9.44771 5 10Z" fill="#0F0F0F"/>
</svg>