<?xml version="1.0" encoding="utf-8"?><!-- Uploaded to: SVG Repo, www.svgrepo.com, Generator: SVG Repo Mixer Tools -->
<svg width="800px" height="800px" viewBox="0 0 24 24" fill="none" xmlns="http://www.w3.org/2000/svg">
<path fill-rule="evenodd" clip-rule="evenodd" d="M1 12.0002C1 16.7302 2.71474 20.2389 3.67316 21.8324C4.22395 22.7482 5.26471 23.1245 6.22852 22.9644L8.75523 22.5448C10.2336 22.2993 11.2243 20.8956 10.9562 19.4262L10.5438 17.166C10.3687 16.2066 9.45305 15.5649 8.48774 15.7253L7.21934 15.9359C6.90298 15.3975 6.37166 14.174 6.37166 12.0002C6.37166 9.82649 6.90298 8.60296 7.21934 8.06458L8.48774 8.27523C9.45305 8.43554 10.3687 7.7939 10.5438 6.83449L10.9562 4.57428C11.2243 3.10492 10.2336 1.7012 8.75523 1.45568L6.22852 1.03606C5.2647 0.875997 4.22395 1.25226 3.67316 2.16804C2.71474 3.76159 1 7.27034 1 12.0002ZM5.20902 20.9153C4.35277 19.4916 2.79055 16.3015 2.79055 12.0002C2.79055 7.69895 4.35277 4.50889 5.20902 3.08521C5.33417 2.87713 5.60095 2.74063 5.93416 2.79596L8.46087 3.21558C8.95367 3.29742 9.28389 3.76533 9.19452 4.25512L8.78211 6.51532L7.42093 6.28927C6.86467 6.19688 6.18151 6.37039 5.7901 6.97502C5.30158 7.72966 4.58111 9.3066 4.58111 12.0002C4.58111 14.6939 5.30158 16.2708 5.7901 17.0255C6.18151 17.6301 6.86467 17.8036 7.42093 17.7112L8.78211 17.4852L9.19452 19.7454C9.28389 20.2352 8.95367 20.7031 8.46087 20.7849L5.93416 21.2045C5.60095 21.2599 5.33417 21.1234 5.20902 20.9153Z" fill="#0F0F0F"/>
<path d="M21.1961 3.00024C20.5773 3.00024 20.1094 3.56475 20.2137 4.1747C20.5074 5.89294 21 9.19288 21 12.0002C21 14.8076 20.5074 18.1075 20.2137 19.8258C20.1094 20.4357 20.5773 21.0002 21.1961 21.0002C21.6635 21.0002 22.0648 20.6722 22.1464 20.212C22.4242 18.6468 23 15.0356 23 12.0002C23 8.9649 22.4242 5.35371 22.1464 3.78848C22.0648 3.32825 21.6635 3.00024 21.1961 3.00024Z" fill="#0F0F0F"/>
<path d="M16.3966 6.35122C16.2403 5.69421 16.7346 5.00024 17.41 5.00024C17.7716 5.00024 18.0974 5.20581 18.2102 5.54937C18.5035 6.4433 19 8.47696 19 12.0002C19 15.5235 18.5035 17.5572 18.2102 18.4511C18.0974 18.7947 17.7716 19.0002 17.41 19.0002C16.7346 19.0002 16.2403 18.3063 16.3966 17.6493C16.6758 16.4761 17 14.5623 17 12.0002C17 9.43814 16.6758 7.52438 16.3966 6.35122Z" fill="#0F0F0F"/>
<path d="M13.5924 7.00024C12.8608 7.00024 12.3406 7.79197 12.5342 8.49746C12.7723 9.36494 13 10.5687 13 12.0002C13 13.4317 12.7723 14.6355 12.5342 15.503C12.3406 16.2085 12.8608 17.0002 13.5924 17.0002C13.8534 17.0002 14.1014 16.8921 14.2238 16.6616C14.5186 16.1067 15 14.7755 15 12.0002C15 9.22495 14.5186 7.89383 14.2238 7.33888C14.1014 7.10837 13.8534 7.00024 13.5924 7.00024Z" fill="#0F0F0F"/>
</svg>