<?xml version="1.0" encoding="utf-8"?><!-- Uploaded to: SVG Repo, www.svgrepo.com, Generator: SVG Repo Mixer Tools -->
<svg width="800px" height="800px" viewBox="0 0 24 24" fill="none" xmlns="http://www.w3.org/2000/svg">
<path d="M9.27872 18.6355L11.2618 20.6836C11.6703 21.1055 12.3297 21.1055 12.7382 20.6836L14.7213 18.6355C14.9826 18.3656 15.0906 17.9687 14.9119 17.6338C14.5639 16.9819 13.7494 16 12 16C10.2506 16 9.43614 16.9819 9.08812 17.6338C8.90937 17.9687 9.01739 18.3656 9.27872 18.6355Z" fill="#0F0F0F"/>
<path d="M5 13.5C5 13.5 6.5 9.5 12 9.5C17.5 9.5 19 13.5 19 13.5C19.5 15 18 15.5 17.5 14.5C17.5 14.5 16 11.5 12 11.5C8 11.5 6.5 14.5 6.5 14.5C6.00002 15.5 4.50002 15 5 13.5Z" fill="#0F0F0F"/>
<path d="M0.999996 9C0.999996 9 4 3 12 3C20 3 23 9 23 9C23.5 10 22.5 11.5 21.5 10C21.5 10 18.5 5 12 5C5.5 5 2.5 10 2.5 10C1.5 11.5 0.499999 10 0.999996 9Z" fill="#0F0F0F"/>
</svg>