<?xml version="1.0" encoding="utf-8"?><!-- Uploaded to: SVG Repo, www.svgrepo.com, Generator: SVG Repo Mixer Tools -->
<svg width="800px" height="800px" viewBox="0 0 24 24" fill="none" xmlns="http://www.w3.org/2000/svg">
<path fill-rule="evenodd" clip-rule="evenodd" d="M3.04685 3.06513C2.96281 1.89204 3.91159 1 5.00001 1H19C20.0884 1 21.0372 1.89204 20.9532 3.06513C20.8472 4.5436 20.4935 7.44404 19.2726 10.0057C18.1499 12.3613 16.214 14.5626 13 14.9424V21H18C18.5523 21 19 21.4477 19 22C19 22.5523 18.5523 23 18 23H6C5.44772 23 5 22.5523 5 22C5 21.4477 5.44772 21 6 21H11V14.9424C7.78598 14.5626 5.85012 12.3613 4.7274 10.0057C3.50649 7.44404 3.15276 4.5436 3.04685 3.06513ZM5.04746 3C5.15424 4.41502 5.49295 6.96339 6.53283 9.14522C7.57831 11.3388 9.23509 13 12 13C14.7649 13 16.4217 11.3388 17.4672 9.14522C18.5071 6.96339 18.8458 4.41502 18.9526 3H5.04746Z" fill="#0F0F0F"/>
</svg>