<?xml version="1.0" encoding="utf-8"?>

<!DOCTYPE svg PUBLIC "-//W3C//DTD SVG 1.1//EN" "http://www.w3.org/Graphics/SVG/1.1/DTD/svg11.dtd">
<!-- Uploaded to: SVG Repo, www.svgrepo.com, Generator: SVG Repo Mixer Tools -->
<svg fill="#000000" height="800px" width="800px" version="1.1" id="Layer_1" xmlns="http://www.w3.org/2000/svg" xmlns:xlink="http://www.w3.org/1999/xlink" 
	 viewBox="0 0 50 50" enable-background="new 0 0 50 50" xml:space="preserve">
<path d="M36.154,38.5c0.552,0,1-0.447,1-1s-0.448-1-1-1H16.171c-0.552,0-1,0.447-1,1s0.448,1,1,1H36.154z"/>
<path d="M42.163,29.5c0-0.553-0.448-1-1-1h-30c-0.552,0-1,0.447-1,1s0.448,1,1,1h30C41.715,30.5,42.163,30.053,42.163,29.5z"/>
<path d="M10.163,13.5c0,0.553,0.448,1,1,1h30c0.552,0,1-0.447,1-1s-0.448-1-1-1h-30C10.61,12.5,10.163,12.947,10.163,13.5z"/>
<path d="M36.154,22.5c0.552,0,1-0.447,1-1s-0.448-1-1-1H16.171c-0.552,0-1,0.447-1,1s0.448,1,1,1H36.154z"/>
</svg>